<?xml version="1.0" encoding="utf-8"?>
<!-- Generator: Adobe Illustrator 15.0.3, SVG Export Plug-In . SVG Version: 6.00 Build 0)  -->
<!DOCTYPE svg PUBLIC "-//W3C//DTD SVG 1.1//EN" "http://www.w3.org/Graphics/SVG/1.1/DTD/svg11.dtd">
<svg version="1.1" id="Ebene_1" xmlns="http://www.w3.org/2000/svg" xmlns:xlink="http://www.w3.org/1999/xlink" x="0px" y="0px"
	 width="349.483px" height="330.891px" viewBox="0 0 349.483 330.891" enable-background="new 0 0 349.483 330.891"
	 xml:space="preserve">
<path fill="#3E92CF" d="M190.247,154.668h-3.652c-0.268-1.053-0.363-144.385-0.096-146.668h3.672
	C190.422,9,190.518,152.336,190.247,154.668"/>
<g>
	<path fill="#3E92CF" d="M105.62,187.135c1.113,0.217,1.939-0.168,2.756-0.568c2.584-1.264,5.26-2.246,8.08-2.844
		c3.977-0.836,8-0.818,12.004-0.496c4.156,0.34,8,1.709,11.369,4.297c3.467,2.664,5.584,6.148,6.271,10.42
		c0.385,2.396,0.592,4.848,0.6,7.271c0.057,13.309,0.029,26.617,0.029,39.924c0,0.24,0.012,0.48-0.006,0.717
		c-0.078,1.096-0.611,1.629-1.73,1.66c-1.148,0.027-2.297,0.004-3.445,0.004c-3.783,0-7.562-0.053-11.344,0.027
		c-1.416,0.033-2.203-0.592-2.199-2.24c0.051-11.584,0.027-23.168,0.027-34.752c0-2.211-0.229-4.395-0.852-6.516
		c-1.363-4.66-4.297-6.848-9.008-7.34c-1.9-0.199-3.816-0.119-5.68,0.477c-3.561,1.131-5.533,3.664-5.697,7.4
		c-0.027,0.668-0.023,1.34-0.023,2.012c-0.004,12.732-0.004,25.463-0.004,38.195c0,0.385,0.02,0.768-0.004,1.148
		c-0.068,0.943-0.596,1.488-1.512,1.58c-0.193,0.02-0.385,0.008-0.576,0.008c-4.836,0-9.668,0-14.504,0
		c-0.145,0-0.289,0.008-0.432,0c-1.053-0.068-1.564-0.557-1.637-1.584c-0.023-0.332-0.004-0.668-0.004-1.004
		c0-19.389,0.023-38.771-0.031-58.16c-0.01-2.527,0.947-2.691,2.66-2.684c4.066,0.023,8.139,0.008,12.207,0.008
		c0.24,0,0.48-0.012,0.717,0.004c1.352,0.088,1.744,0.467,1.891,1.84C105.584,186.316,105.592,186.691,105.62,187.135"/>
	<path fill="#3E92CF" d="M54.233,244.473c-1.541-0.064-2.709,0.473-3.916,0.9c-2.199,0.783-4.381,1.676-6.641,2.219
		c-5.367,1.297-10.787,1.43-16.16-0.055c-7.523-2.076-12.051-7.033-13.803-14.588c-0.48-2.061-0.656-4.152-0.656-6.266
		c0.004-13.355,0-26.711,0.004-40.062c0-0.336-0.004-0.672,0.016-1.008c0.053-0.77,0.488-1.24,1.213-1.408
		c0.412-0.092,0.852-0.104,1.279-0.104c4.549-0.01,9.096-0.01,13.641-0.006c0.383,0,0.771-0.004,1.143,0.072
		c0.873,0.176,1.32,0.684,1.42,1.572c0.041,0.377,0.014,0.764,0.014,1.148c0,11.729,0.004,23.455-0.004,35.184
		c-0.004,2.416,0.326,4.768,1.279,7c1.459,3.408,4.076,5.285,7.732,5.836c2.123,0.32,4.207,0.225,6.244-0.363
		c3.379-0.977,5.291-3.279,5.744-6.764c0.135-1.037,0.199-2.092,0.203-3.141c0.012-12.4,0.008-24.797,0.008-37.195
		c0-0.385-0.008-0.766,0-1.148c0.037-1.688,0.527-2.191,2.264-2.195c4.693-0.018,9.385,0.016,14.076-0.018
		c1.801-0.016,2.412,0.797,2.408,2.4c-0.031,19.58-0.02,39.16-0.023,58.74c0,0.236,0.02,0.48-0.004,0.717
		c-0.1,0.975-0.684,1.562-1.684,1.566c-4.74,0.021-9.48,0.021-14.221,0c-1.008-0.004-1.457-0.455-1.568-1.479
		C54.192,245.561,54.233,245.084,54.233,244.473"/>
	<path fill="#3E92CF" d="M273.635,214.318c-0.607,0.16-0.928,0.223-1.236,0.332c-4.771,1.66-9.564,3.268-14.305,5.016
		c-1.916,0.703-3.799,1.576-5.551,2.607c-2.221,1.309-3.717,3.289-4.26,5.859c-0.305,1.449-0.412,2.908-0.189,4.404
		c0.309,2.084,1.18,3.805,2.873,5.092c1.324,1.01,2.848,1.549,4.459,1.832c3.137,0.557,6.289,0.438,9.412-0.074
		c2.172-0.357,4.268-1.006,6.18-2.16c1.297-0.785,2.197-1.84,2.389-3.381c0.125-0.992,0.217-1.996,0.221-2.996
		c0.02-4.973,0.008-9.947,0.008-14.92V214.318z M274.774,244.689c-1.711-0.268-3.115,0.355-4.494,1
		c-2.266,1.057-4.617,1.809-7.076,2.248c-5.705,1.016-11.32,0.924-16.77-1.291c-3.783-1.541-6.932-3.885-8.863-7.572
		c-3.336-6.369-2.553-15.5,5.244-20.797c2.736-1.859,5.676-3.348,8.707-4.664c4.957-2.148,10.102-3.768,15.225-5.451
		c1.404-0.465,2.805-0.953,4.201-1.436c1.672-0.576,2.646-1.729,2.646-3.514c0-1.623,0.045-3.283-0.279-4.852
		c-0.629-3.027-2.844-4.523-5.713-5.139c-2.49-0.537-5.008-0.557-7.555-0.365c-4.129,0.316-8.137,1.111-11.961,2.693
		c-1.496,0.619-2.883,1.49-4.348,2.184c-0.633,0.295-1.328,0.551-2.012,0.6c-0.92,0.068-1.576-0.549-1.6-1.469
		c-0.049-2.152-0.045-4.307,0.016-6.459c0.023-0.793,0.439-1.5,1.184-1.861c1.369-0.668,2.721-1.416,4.16-1.863
		c3.615-1.115,7.352-1.668,11.104-2.104c3.189-0.369,6.377-0.676,9.588-0.537c3.404,0.145,6.748,0.621,9.924,1.953
		c5.748,2.42,8.621,6.855,9.098,12.967c0.059,0.809,0.059,1.625,0.059,2.438c0.004,14.314,0,28.631,0,42.943
		c0,0.385,0.012,0.768,0,1.152c-0.055,1.393-0.643,2.004-2.027,2.02c-2.008,0.023-4.02,0.016-6.031,0.004
		c-1.721-0.008-2.197-0.451-2.357-2.156C274.827,245.178,274.807,244.99,274.774,244.689"/>
	<path fill="#3E92CF" d="M196.928,193.83c-1.541,0-2.916,0-4.293,0c-0.863-0.004-1.729,0.035-2.584-0.029
		c-1.08-0.078-1.588-0.486-1.676-1.582c-0.141-1.805-0.207-3.625-0.172-5.438c0.023-1.156,0.816-1.768,2.172-1.812
		c1.58-0.047,3.16-0.012,4.74-0.012c0.52,0,1.039,0,1.736,0c0.027-0.596,0.072-1.096,0.072-1.6
		c0.008-3.875,0.004-7.752,0.004-11.631c0-0.289-0.004-0.572,0-0.861c0.035-1.867,0.555-2.412,2.387-2.424
		c2.297-0.016,4.598-0.004,6.893-0.004c0.096,0,0.191-0.004,0.289,0.004c1.367,0.076,1.982,0.688,1.994,2.076
		c0.021,2.584,0.006,5.168,0.006,7.756c0,2.148,0,4.297,0,6.6c0.588,0.033,1.092,0.08,1.592,0.08
		c4.979,0.004,9.959,0.004,14.936,0.004c0.383,0,0.768-0.02,1.148,0.008c1.531,0.113,2.131,0.74,2.143,2.266
		c0.018,1.436,0.014,2.871,0.004,4.307c-0.016,1.588-0.65,2.225-2.283,2.229c-3.875,0.016-7.756,0.004-11.633,0.004H208.6
		c-0.041,0.469-0.1,0.832-0.1,1.199c-0.004,11.777-0.018,23.553,0.02,35.328c0.004,1.229,0.223,2.473,0.477,3.686
		c0.787,3.779,3.596,5.523,7.215,5.783c2.691,0.191,5.225-0.355,7.648-1.5c0.736-0.348,1.48-0.688,2.248-0.939
		c1.188-0.385,2.152,0.244,2.191,1.48c0.061,1.818,0.012,3.639,0.016,5.455c0,0.928-0.635,1.412-1.348,1.68
		c-1.6,0.613-3.219,1.197-4.875,1.633c-2.785,0.732-5.645,1.039-8.518,0.988c-2.73-0.049-5.424-0.438-7.971-1.529
		c-4.637-1.988-7.373-5.5-8.289-10.404c-0.295-1.584-0.367-3.23-0.371-4.848c-0.027-12.062-0.016-24.127-0.016-36.191V193.83z"/>
	<path fill="#3E92CF" d="M314.864,189.082c1.389,0.195,2.441-0.229,3.477-0.74c2.229-1.1,4.488-2.125,6.932-2.668
		c3.008-0.672,6.049-0.844,9.109-0.484c1.895,0.225,2.65,1.012,2.924,2.936c0.088,0.613,0.104,1.24,0.084,1.855
		c-0.037,1.244-0.145,2.484-0.176,3.725c-0.057,1.912-0.736,2.52-2.584,2.16c-3.678-0.717-7.381-1.131-11.125-0.92
		c-1.275,0.072-2.576,0.252-3.801,0.604c-2.467,0.717-3.756,2.508-4.055,5.021c-0.08,0.664-0.076,1.34-0.076,2.008
		c-0.004,13.928,0,27.859-0.008,41.787c0,0.615-0.033,1.248-0.172,1.844c-0.217,0.924-0.672,1.289-1.625,1.301
		c-2.439,0.027-4.883,0.027-7.324,0c-1.096-0.012-1.771-0.664-1.908-1.744c-0.043-0.377-0.016-0.764-0.016-1.148
		c0-18.908,0-37.816,0-56.725c0-0.234-0.008-0.475,0.004-0.715c0.057-1.381,0.629-2.137,1.957-2.184
		c2.148-0.08,4.307-0.084,6.455,0.023c1.461,0.076,1.793,0.512,1.92,1.977C314.913,187.645,314.864,188.305,314.864,189.082"/>
	<path fill="#3E92CF" d="M175.514,216.268c0,9.428,0,18.855,0,28.279c0,0.432,0.023,0.865-0.012,1.293
		c-0.088,0.967-0.689,1.645-1.645,1.66c-2.725,0.043-5.453,0.043-8.18,0.004c-0.945-0.016-1.592-0.705-1.693-1.633
		c-0.043-0.379-0.016-0.764-0.016-1.148c0-18.951,0-37.898,0-56.852c0-0.336-0.02-0.672,0.008-1.004
		c0.076-0.988,0.564-1.551,1.545-1.795c0.275-0.068,0.564-0.109,0.848-0.109c2.248-0.008,4.5-0.012,6.748,0.004
		c0.375,0,0.76,0.072,1.123,0.172c0.773,0.217,1.209,0.744,1.252,1.557c0.025,0.428,0.021,0.859,0.021,1.289
		C175.514,197.412,175.514,206.84,175.514,216.268"/>
	<path fill="#3E92CF" d="M162.715,166.881c0.053-0.432,0.061-1.207,0.248-1.939c0.857-3.352,3.209-4.461,5.777-4.713
		c1.168-0.115,2.395,0.012,3.547,0.264c2.125,0.465,3.52,1.832,4.156,3.93c0.564,1.875,0.537,3.768-0.027,5.643
		c-0.564,1.881-1.797,3.096-3.688,3.66c-1.93,0.572-3.857,0.617-5.781,0.041c-2.408-0.729-3.871-2.561-4.127-5.125
		C162.772,168.168,162.76,167.689,162.715,166.881"/>
</g>
<g>
	<path fill="#3E92CF" d="M338.202,37.207c0.283,1.197-0.012,2.094-0.568,2.793c-0.885,1.115-1.787,2.305-2.932,3.107
		c-2.141,1.508-4.393,2.896-6.721,4.096c-5.176,2.672-10.455,5.145-15.641,7.809c-3.402,1.752-6.611,3.836-9.428,6.48
		c-1.975,1.859-3.496,4.004-4.639,6.477c-2.652,5.719-5.953,11.027-10.5,15.459c-1.336,1.301-2.82,2.439-4.236,3.652
		c-0.324,0.275-0.664,0.535-1.029,0.832c12.953,17.195,19.98,36.74,23.389,57.74c0.076,0.477-0.061,0.992-0.104,1.555
		c-1.168-0.055-1.531-0.787-1.869-1.512c-1.016-2.211-1.955-4.459-3.023-6.648c-5.139-10.539-10.836-20.76-17.893-30.164
		c-3.219-4.299-6.703-8.367-10.963-11.695c-1.893-1.477-3.889-2.809-6.217-3.492c-1.227-0.355-2.516-0.688-3.783-0.707
		c-6.225-0.096-12.42-0.588-18.568-1.52c-7.484-1.133-14.795-2.934-21.664-6.244c-4.564-2.201-8.668-5.053-12.191-8.709
		c-0.348-0.359-0.672-0.828-0.805-1.305c-0.191-0.703,0.285-1.1,0.988-0.918c0.229,0.055,0.439,0.176,0.656,0.279
		c4.996,2.375,10.301,3.775,15.695,4.836c6.301,1.24,12.66,1.916,19.092,1.836c4.801-0.057,9.549-0.457,14.105-2.107
		c0.654-0.236,1.279-0.568,2.023-0.904c-2.18-2.201-4.408-4.076-6.74-5.832c-3.375-2.537-7.004-4.648-10.824-6.436
		c-3.82-1.785-7.516-3.801-10.76-6.529c-0.791-0.668-1.484-1.484-2.129-2.307c-0.467-0.605-0.42-1.273,0.018-1.988
		c2.607-4.289,5.248-8.557,7.73-12.916c4.66-8.182,9.217-16.42,13.82-24.633c0.184-0.332,0.393-0.648,0.652-1.076
		c0.348,0.66,0.648,1.229,0.957,1.797c2.146,3.988,4.875,7.535,8.066,10.748c3.309,3.322,6.633,6.635,9.85,10.047
		c4.047,4.293,7.723,8.885,10.459,14.148c0.984,1.9,1.764,3.908,2.676,5.959c3.469,1.16,6.873,0.637,10.152-1.012
		c0.98-0.492,1.947-1.039,2.828-1.688c6.316-4.627,13.359-7.736,20.756-10.168c3.576-1.176,7.119-2.48,10.611-3.893
		c2.889-1.168,5.508-2.859,7.98-4.768C337.661,37.553,337.858,37.436,338.202,37.207"/>
	<path fill="#3E92CF" d="M269.706,114.689c-4.908,1.521-9.805,2.412-14.939,2.312c3.398,3.1,10.043,6.148,16.615,6.9
		c3.924,0.443,7.84,0.336,11.684-0.844C277.973,121.303,273.729,118.262,269.706,114.689 M237.077,92.895
		c1.412,0.248,2.809,0.488,4.336,0.756c0.521,3.352,1.164,6.703,2.77,10.107c1.295-3.451,3.02-6.359,5.234-9.051
		c0.836,0.1,1.686,0.199,2.668,0.314c-0.555,0.713-1.055,1.336-1.535,1.977c-1.779,2.385-3.389,4.863-4.217,7.764
		c-0.012,0.049-0.031,0.092-0.051,0.137c-0.572,1.451-0.412,2.76,0.627,3.984c1.137,1.352,2.229,2.744,3.285,4.164
		c0.688,0.932,1.643,1.234,2.703,1.416c2.621,0.447,5.252,0.352,7.855-0.053c2.293-0.355,4.557-0.912,7.148-1.443
		c-5.096-5.396-9.145-11.133-12.211-17.645h2.496c3.146,6.176,7.08,11.775,12.092,16.709c3.143-0.91,6.055-2.332,9.115-3.689
		c0.461,0.561,0.908,1.1,1.432,1.732c-2.676,1.52-5.488,2.547-8.256,3.688c2.016,3.328,11.193,7.82,16.068,7.832
		c0.717,1.184,1.469,2.438,2.229,3.697c-9.797,4.779-24.824,4.932-36.98-3.129C242.333,114.51,237.022,101.594,237.077,92.895"/>
	<path fill="#3E92CF" d="M297.114,42.947c0.152-1.332,1.111-2.156,1.703-3.188c0.641-1.121,1.344-2.205,1.988-3.324
		c0.619-1.072,1.209-2.168,1.793-3.264c0.588-1.096,1.154-2.197,1.719-3.305s1.107-2.225,1.66-3.34
		c0.568-1.156,1.104-2.332,1.709-3.473c0.576-1.092,1.219-2.146,1.943-3.416c-3.195,0.336-6.221,0.652-9.42,0.984
		c-0.393,1.197-0.832,2.443-1.217,3.709c-0.975,3.191-1.879,6.408-2.912,9.584c-0.467,1.447-1.156,2.824-1.783,4.215
		c-0.18,0.404-0.488,0.748-0.74,1.121c-0.1-0.045-0.199-0.088-0.301-0.133c0.041-0.352,0.021-0.725,0.137-1.049
		c1.268-3.578,1.764-7.322,2.4-11.039c0.5-2.916,0.98-5.836,1.963-8.645c0.057-0.16,0.037-0.352,0.064-0.672
		c-2.82,0.752-5.52,1.473-8.275,2.209c-0.045,0.543-0.104,1.012-0.115,1.484c-0.072,3.154-0.049,6.314-0.236,9.463
		c-0.121,1.992-0.537,3.965-0.854,5.939c-0.062,0.404-0.275,0.785-0.451,1.273c-0.607-0.336-0.627-0.797-0.588-1.264
		c0.359-4.27-0.023-8.496-0.592-12.721c-0.32-2.369-0.545-4.748,0.004-7.365c-3.377,1.785-6.541,3.461-9.828,5.197
		c0.539,1.627,1.064,3.199,1.588,4.771c1.324,3.932,2.705,7.855,3.408,11.961c0.271,1.596,0.484,3.215,0.164,4.84
		c-0.049,0.244-0.225,0.463-0.393,0.799c-0.211-0.227-0.42-0.344-0.439-0.482c-0.648-4.812-2.676-9.141-4.684-13.477
		c-1.525-3.289-3.096-6.561-4.096-10.064c-0.105-0.363-0.209-0.729-0.365-1.279c-2.82,2.688-5.561,5.303-8.439,8.047
		c-0.344-0.52-0.633-0.947-1.045-1.559c3.996-5.08,8.172-10.389,12.561-15.965c-0.176,4.004,0.377,7.564,1.42,11.283
		c4.953-3.832,9.557-7.803,14.301-11.719c-0.5,3.191-1.188,6.32-1.357,9.707c5.217-2.4,10.064-5.135,15.141-7.875
		c-1.367,2.791-2.631,5.375-4.043,8.26c2.916-0.385,5.387-1.188,7.895-1.805c2.537-0.627,5.057-1.328,7.697-2.027
		c-0.084,0.256-0.096,0.396-0.168,0.484c-4.072,5.039-7.332,10.607-10.609,16.176c-1.664,2.836-3.596,5.52-5.479,8.223
		c-0.596,0.857-1.412,1.557-2.152,2.305C297.61,42.719,297.34,42.811,297.114,42.947"/>
	<path fill="#3E92CF" d="M309.479,85.088c-2.021,4.049-4.861,7.436-8,10.656c1.139,4.963,1.676,9.955,0.883,15.195
		C307.827,105.424,311.811,90.801,309.479,85.088 M301.61,118.508c-0.691-1.775-1.371-3.404-1.947-5.064
		c-0.137-0.404,0.016-0.936,0.119-1.383c1.057-4.561,0.809-9.109-0.084-13.652c-0.035-0.184-0.131-0.355-0.256-0.68
		c-1.691,1.375-3.336,2.707-5.096,4.135c-0.408-0.711-0.748-1.307-1.131-1.979c1.895-1.621,3.768-3.221,5.676-4.854
		c-1.248-4.943-3.266-9.451-5.664-13.906c0.188-0.285,0.379-0.602,0.596-0.9c0.225-0.309,0.473-0.6,0.836-1.064
		c2.668,4.359,4.504,8.973,6.088,13.828c1.576-1.352,2.744-2.908,3.9-4.457c1.66-2.23,3.131-4.58,3.855-7.303
		c0.123-0.473,0.164-1.064-0.004-1.5c-0.832-2.129-1.744-4.225-2.633-6.332c-0.256-0.613-0.699-1.018-1.352-1.172
		c-1.199-0.285-2.404-0.572-3.611-0.832c-0.408-0.088-0.832-0.105-1.404-0.172c0.348-0.736,0.645-1.365,0.996-2.117
		c0.824,0.08,1.656,0.164,2.736,0.271c-0.633-0.811-1.141-1.459-1.74-2.23c0.615-1.305,1.504-2.457,2.52-3.529
		C317.051,75.592,319.711,102.199,301.61,118.508"/>
	<path fill="#3E92CF" d="M296.061,50.312c-0.105,2.027-0.408,3.801-1.537,5.328c-1.691,2.289-4.355,2.729-6.695,1.1
		c-1.729-1.199-2.713-2.916-3.293-4.896c-0.779-2.672-0.695-5.271,0.625-7.783c1.604-3.041,5.064-3.316,7.324-1.545
		c1.863,1.461,2.816,3.461,3.307,5.709C295.952,48.969,295.989,49.736,296.061,50.312"/>
	<path fill="#3E92CF" d="M307.127,132.672c2.809-2.932,5.908-4.832,9.416-6.096c2.309-0.832,4.68-1.324,7.152-1.168
		c1.787,0.113,3.463,0.545,4.924,1.781c-0.828,1.635-2.107,2.768-3.508,3.748c-2.789,1.951-5.9,3.035-9.293,3.42
		c-2.219,0.256-4.379,0.131-6.48-0.617C308.639,133.492,307.995,133.098,307.127,132.672"/>
	<path fill="#3E92CF" d="M295.745,139.201c0.232,1.801-0.203,3.373-0.92,4.824c-2.484,5.045-6.344,8.561-11.779,10.205
		c-0.904,0.271-1.863,0.355-2.844,0.539c-0.412-1.133-0.248-2.148,0.008-3.164c0.604-2.404,2.016-4.336,3.732-6.027
		c3.123-3.072,6.803-5.229,11.084-6.293C295.209,139.242,295.401,139.242,295.745,139.201"/>
	<path fill="#3E92CF" d="M255.575,150.15c5.328-6.16,14.26-7.311,21.504-3.824C271.799,152.639,261.795,154.979,255.575,150.15"/>
	<path fill="#3E92CF" d="M337.446,103.949c0.307,2.344-0.08,4.562-1.072,6.68c-2.109,4.508-5.748,7.279-10.293,9.004
		c-0.58,0.219-1.176,0.4-1.771,0.562c-0.404,0.117-0.824,0.182-1.252,0.27C323.897,111.949,329.676,105.42,337.446,103.949"/>
	<path fill="#3E92CF" d="M337.354,85.371c2.152,6.855-0.672,13.84-8.289,17.859C327.586,97.426,329.911,89.123,337.354,85.371"/>
	<path fill="#3E92CF" d="M239.809,140.469c5.145-3.723,13.684-3.363,19.607,2.029C252.477,146.705,244.809,146.152,239.809,140.469"
		/>
	<path fill="#3E92CF" d="M277.358,135.457c3.053-2.088,6.24-3.039,9.809-2.152c3.076,0.77,5.615,2.469,7.904,4.672
		C289.59,141.234,282.198,141.205,277.358,135.457"/>
	<path fill="#3E92CF" d="M313.618,115.016c2.205,6.85-0.859,13.098-7.051,16.43c-0.58-3.201-0.82-6.348,0.215-9.457
		C307.911,118.617,310.305,116.445,313.618,115.016"/>
	<path fill="#3E92CF" d="M277.75,144.855c-6.057,0.566-13.461-6.213-13.465-12.156c0.779-0.285,1.568-0.152,2.332,0.084
		C272.625,134.627,276.254,138.662,277.75,144.855"/>
	<path fill="#3E92CF" d="M321.719,120.18c-5.305-3.688-6.945-13.461-3.762-17.812c1.301,0.58,2.205,1.613,2.977,2.752
		c1.309,1.936,2.037,4.096,2.188,6.432c0.168,2.496,0.125,4.973-0.832,7.344C322.118,119.324,321.915,119.736,321.719,120.18"/>
	<path fill="#3E92CF" d="M251.717,127.217c5.568,1.045,9.828,10.096,8.361,14.088c-1.232-0.275-2.225-1-3.178-1.76
		c-2.898-2.324-4.855-5.232-5.463-8.959C251.25,129.434,251.321,128.312,251.717,127.217"/>
	<path fill="#3E92CF" d="M327.586,103.266c-4.818-1.211-9.57-9.814-7.684-14.387c1.236,0.084,2.213,0.744,3.121,1.516
		C326.559,93.406,328.375,98.516,327.586,103.266"/>
	<path fill="#3E92CF" d="M331.034,71.777c3.135,4.52,2.574,11.184-2.572,15.531C325.721,81.557,326.637,75.736,331.034,71.777"/>
	<path fill="#3E92CF" d="M231.456,127.965c5.943-1.908,11.752,1.127,14.488,5.844C239.436,135.707,233.792,133.156,231.456,127.965"
		/>
	<path fill="#3E92CF" d="M238.6,78.531c1.137-3.652,2.717-6.871,4.805-10.027c1.309,0.672,2.596,1.336,3.879,1.996
		c-1.428,2.799-2.795,5.482-4.227,8.287C241.7,78.711,240.241,78.627,238.6,78.531"/>
	<path fill="#3E92CF" d="M327.282,87.355c-4.24,0.127-9.107-4.748-8.992-8.996c0.785-0.244,1.557-0.125,2.336,0.127
		c1.641,0.529,2.93,1.553,4.018,2.852C326.098,83.086,326.991,85.074,327.282,87.355"/>
	<path fill="#3E92CF" d="M246.688,132.734c-4.008-2.689-5.729-9.477-3.092-12.393C247.745,122.658,248.708,130.102,246.688,132.734"
		/>
	<path fill="#3E92CF" d="M322.702,63.055c3.248,2.137,4,8.332,1.412,11.223C321.237,71.643,320.53,66.223,322.702,63.055"/>
	<path fill="#3E92CF" d="M237.194,123.285c-4.236,0.518-8.867-3.154-8.832-6.922C231.706,115.826,235.735,118.945,237.194,123.285"
		/>
	<path fill="#3E92CF" d="M238.184,113.205c2.221,2.312,2.201,6.6-0.191,9.404C235.813,119.812,235.725,115.75,238.184,113.205"/>
	<path fill="#3E92CF" d="M315.102,70.025c2.881-0.992,6.361,1.02,7.949,4.592C319.471,75.404,315.331,72.725,315.102,70.025"/>
	<path fill="#3E92CF" d="M230.692,107.371c2.74,1.283,4.197,5.551,3.457,8.436C231.428,114.332,230.012,110.936,230.692,107.371"/>
	<path fill="#3E92CF" d="M313.743,60.82c3.439,1.252,5.141,3.703,5.629,7.172C316.77,67.391,313.571,64.24,313.743,60.82"/>
	<path fill="#3E92CF" d="M252.198,73.658c0.137,1.541,0.26,3,0.396,4.533c-0.676,0.104-1.32,0.203-2.096,0.324
		c-0.525-2.004-0.404-3.984-0.408-6.137C250.93,72.684,251.458,73.215,252.198,73.658"/>
</g>
<g>
	<path fill="#3E92CF" d="M130.706,285.189c0-1.096,0-2.188,0-3.283c0-2.537-0.012-5.076,0.006-7.613
		c0.008-1.238,0.18-1.395,1.41-1.42c0.43-0.012,0.861-0.004,1.289,0.029c0.184,0.016,0.355,0.119,0.627,0.215v18.92
		c-1.26,0-2.447,0.102-3.607-0.051c-0.451-0.057-0.936-0.609-1.225-1.053c-1.096-1.68-2.119-3.408-3.168-5.119
		c-1.176-1.916-2.344-3.836-3.523-5.748c-0.188-0.312-0.416-0.598-0.867-0.832v4.248c0,1.387,0.016,2.779-0.004,4.168
		c-0.021,1.42,0.096,2.848-0.105,4.311h-3.172v-18.887c1.309-0.361,2.613-0.301,3.865-0.092c0.488,0.08,0.98,0.711,1.291,1.207
		c2.072,3.271,4.092,6.576,6.133,9.869c0.248,0.395,0.508,0.787,0.76,1.18C130.514,285.223,130.61,285.205,130.706,285.189"/>
	<path fill="#3E92CF" d="M24.979,273.041c1.283-0.281,2.539-0.225,3.939-0.041c0.027,0.596,0.072,1.109,0.072,1.621
		c0.004,3.203,0.004,6.412,0.004,9.619c0,0.289-0.004,0.576,0,0.861c0.027,1.57,0.404,2.971,2.02,3.627
		c1.717,0.699,3.381,0.545,4.9-0.539c0.652-0.465,1.012-1.148,1.053-1.961c0.039-0.812,0.074-1.623,0.074-2.436
		c0.014-3.016,0.006-6.033,0.006-9.049v-1.484c1.168-0.479,1.898-0.508,3.299-0.146c0.045,0.324,0.133,0.688,0.133,1.051
		c0.008,3.924,0.031,7.848-0.004,11.777c-0.033,3.76-2.145,6.055-5.928,6.391c-1.416,0.125-2.869,0.141-4.273-0.043
		c-2.562-0.336-5.4-2.037-5.387-5.828c0.012-4.164-0.033-8.328-0.041-12.492C24.842,273.693,24.922,273.412,24.979,273.041"/>
	<path fill="#3E92CF" d="M230.602,303.559c0.008,2.068-0.053,3.859,0.039,5.748c1.084-0.057,2.004,0,2.877-0.172
		c1.367-0.264,2.035-1.328,1.986-2.889c-0.039-1.383-0.715-2.26-2.066-2.488C232.565,303.611,231.661,303.627,230.602,303.559
		 M230.61,311.363v8.191c-1.248,0.443-2.385,0.312-3.625,0.129v-18.213c0.312-0.076,0.621-0.209,0.928-0.213
		c2.057-0.016,4.117-0.047,6.168,0.018c0.797,0.023,1.625,0.18,2.369,0.463c1.867,0.705,2.859,2.324,2.711,4.877
		c-0.131,2.26-1.314,3.73-3.836,4.215c1.049,1.5,2.025,2.881,2.977,4.273c0.965,1.416,1.9,2.848,3.004,4.5
		c-0.604,0.1-0.988,0.211-1.371,0.219c-2.805,0.08-2.809,0.076-4.34-2.232c-1.189-1.791-2.361-3.592-3.537-5.387
		C231.741,311.719,231.465,311.188,230.61,311.363"/>
	<path fill="#3E92CF" d="M103.262,284.857c0.016,0,0.035,0,0.055-0.004c-0.051-0.996-0.1-1.996-0.16-2.992
		c-0.039-0.688-0.391-1.168-1.043-1.389c-1.652-0.555-3.824-0.287-4.572,1.924c-0.436,1.293-0.5,2.592-0.256,3.932
		c0.408,2.221,2.061,3.369,4.252,2.896c1.18-0.256,1.633-0.732,1.713-1.936C103.305,286.48,103.262,285.67,103.262,284.857
		 M106.989,291.988c-1.314-0.043-2.588,0.469-3.748-0.443c-1.756,0.779-3.578,0.957-5.432,0.396
		c-2.551-0.768-3.943-2.629-4.436-5.137c-0.328-1.695-0.244-3.412,0.359-5.084c1.305-3.627,5.072-5.299,8.74-3.971
		c0.172,0.062,0.34,0.135,0.652,0.26c0.336-1.988-0.027-3.938,0.24-5.861c1.217-0.336,2.336-0.23,3.535-0.092
		c0.084,0.344,0.225,0.656,0.225,0.965c0.012,6.072,0.008,12.139,0,18.211C107.125,291.418,107.061,291.605,106.989,291.988"/>
	<path fill="#3E92CF" d="M156.499,312.824h-0.004c0-0.955-0.012-1.908,0.004-2.863c0.018-0.752-0.311-1.244-0.986-1.58
		c-2.025-1.008-4.426-0.152-5.248,1.939c-0.541,1.369-0.572,2.801-0.217,4.213c0.596,2.379,2.576,3.482,4.916,2.811
		c1.039-0.299,1.5-0.859,1.531-1.947C156.52,314.541,156.499,313.68,156.499,312.824 M147.258,322.096
		c1.377,0.393,2.641,0.828,3.938,1.102c0.727,0.15,1.531,0.143,2.271,0.027c2.4-0.377,3.256-1.656,2.881-4.236
		c-0.408,0.156-0.801,0.32-1.197,0.457c-3.451,1.215-7.74-0.469-8.504-4.816c-0.252-1.461-0.215-2.859,0.197-4.248
		c1.402-4.697,6.6-5.768,9.627-3.896c0.912-0.916,2.027-0.561,3.199-0.463c0.064,0.352,0.178,0.668,0.178,0.982
		c0.012,4.4,0.035,8.805,0,13.205c-0.029,2.988-1.24,4.42-4.201,5.1c-2.484,0.568-4.943,0.367-7.371-0.312
		C146.971,324.637,146.743,323.924,147.258,322.096"/>
	<path fill="#3E92CF" d="M145.28,285.055c-1.416,0.396-2.756,0.584-3.768,1.557c-0.828,0.803-0.74,1.836,0.225,2.393
		c0.932,0.535,1.936,0.562,2.859,0.004c0.316-0.193,0.615-0.648,0.652-1.014C145.34,287.059,145.28,286.107,145.28,285.055
		 M137.872,281.504v-2.729c0.256-0.172,0.541-0.445,0.881-0.572c2.471-0.932,5.023-1.148,7.592-0.52
		c1.988,0.488,2.932,1.803,2.939,3.855c0.012,3.064,0.008,6.123,0,9.184c0,0.373-0.055,0.74-0.1,1.268
		c-1.344-0.047-2.652,0.477-3.877-0.527c-1.248,0.549-2.535,0.977-3.971,0.893c-2.252-0.133-3.768-1.273-4.26-3.348
		c-0.496-2.09,0.379-4.033,2.398-4.988c1.244-0.588,2.58-0.977,3.877-1.457c0.619-0.227,1.24-0.455,1.797-0.66
		c0.287-0.727,0.031-1.215-0.549-1.324c-0.871-0.164-1.787-0.271-2.66-0.168c-0.836,0.102-1.633,0.514-2.451,0.758
		C139.016,281.303,138.528,281.371,137.872,281.504"/>
	<path fill="#3E92CF" d="M82.108,282.861h1.691h3.707c-0.123-1.729-1.092-2.607-2.699-2.576
		C83.151,280.318,82.184,281.193,82.108,282.861 M91.52,285.77h-9.336c-0.105,1.699,0.699,2.875,2.203,3.379
		c1.389,0.469,2.736,0.217,4.057-0.275c0.619-0.232,1.219-0.516,1.924-0.816c0.668,0.965,0.316,1.957,0.34,3.049
		c-0.648,0.264-1.275,0.6-1.949,0.779c-1.963,0.521-3.955,0.641-5.943,0.137c-2.148-0.541-3.676-1.832-4.352-3.951
		c-0.717-2.236-0.717-4.514,0.133-6.732c0.951-2.492,2.863-3.768,5.463-3.924c1.129-0.068,2.305,0.027,3.396,0.295
		c2.324,0.572,3.641,2.221,4.031,4.521C91.67,283.289,91.52,284.406,91.52,285.77"/>
	<path fill="#3E92CF" d="M180.797,284.988c-0.172-0.924-0.252-1.84-0.523-2.688c-0.424-1.328-1.396-1.992-2.621-2.061
		c-1.406-0.076-2.26,0.688-2.756,1.869c-0.791,1.887-0.73,3.828,0.064,5.695c0.484,1.129,1.373,1.775,2.705,1.736
		c1.336-0.041,2.146-0.781,2.566-1.92C180.538,286.785,180.618,285.869,180.797,284.988 M170.381,284.744
		c0.164-1.031,0.229-2.092,0.508-3.092c0.689-2.436,2.82-4.137,5.361-4.252c1.227-0.057,2.512-0.08,3.695,0.195
		c3.035,0.717,4.363,3.01,4.641,6.006c0.119,1.307-0.068,2.662-0.244,3.982c-0.273,2.061-2.289,4.572-5.213,4.773
		c-0.996,0.062-1.996,0.059-2.988,0.031c-2.824-0.084-5.236-2.516-5.576-5.764c-0.062-0.617-0.062-1.24-0.092-1.861
		C170.442,284.756,170.415,284.752,170.381,284.744"/>
	<path fill="#3E92CF" d="M211.924,312.828h-0.012c0-0.957,0.023-1.908-0.006-2.859c-0.023-0.709-0.291-1.281-0.982-1.609
		c-1.881-0.891-4.492-0.447-5.309,1.961c-0.516,1.527-0.553,3.104-0.115,4.645c0.611,2.154,2.516,3.162,4.699,2.596
		c1.068-0.277,1.684-1.025,1.717-2.156C211.944,314.543,211.924,313.688,211.924,312.828 M211.936,306.535v-6.062h3
		c0.064,0.211,0.211,0.475,0.211,0.734c0.014,5.938,0.008,11.877,0.004,17.812c-0.004,0.184-0.062,0.369-0.115,0.66
		c-1.096,0.133-2.203,0.592-3.027-0.465c-1.057,0.244-2.057,0.598-3.08,0.693c-3.453,0.32-6.217-1.42-6.957-5.504
		c-0.303-1.676-0.111-3.348,0.568-4.92c1.641-3.793,5.783-4.561,8.381-3.332C211.168,306.268,211.432,306.348,211.936,306.535"/>
	<path fill="#3E92CF" d="M191.547,291.988h-3.809c-0.072-0.393-0.201-0.748-0.201-1.107c-0.016-4.064-0.012-8.133-0.004-12.201
		c0-0.275,0.08-0.551,0.145-0.959c1.285-0.076,2.52-0.385,3.596,0.184c1.58-0.191,3.08-0.539,4.572-0.523
		c2.629,0.023,4.4,1.615,4.523,4.229c0.16,3.383,0.041,6.775,0.041,10.127c-1.107,0.396-2.305,0.428-3.869,0.107
		c-0.031-0.463-0.1-0.967-0.104-1.475c-0.012-2.441,0.033-4.881-0.027-7.32c-0.016-0.633-0.148-1.404-0.527-1.859
		c-0.812-0.977-1.992-0.77-3.064-0.473c-0.992,0.275-1.26,0.748-1.268,1.959c-0.014,2.537-0.004,5.076-0.004,7.613V291.988z"/>
	<path fill="#3E92CF" d="M48.161,291.961h-3.699c-0.354-1.027-0.457-12.125-0.156-14.037c1.264-0.508,2.809-0.439,3.5-0.004
		c1.699-0.215,3.152-0.559,4.604-0.547c2.705,0.016,4.465,1.604,4.592,4.312c0.16,3.291,0.029,6.6,0.016,9.898
		c0,0.084-0.084,0.164-0.211,0.396c-0.512,0.023-1.117,0.057-1.721,0.068c-0.568,0.012-1.135,0.004-1.875,0.004
		c-0.053-0.557-0.129-1.008-0.129-1.461c-0.012-2.395-0.004-4.787-0.012-7.18c0-0.432,0.016-0.871-0.068-1.287
		c-0.199-0.961-0.812-1.484-1.787-1.576c-0.332-0.033-0.668-0.027-1.004-0.004c-1.441,0.104-2.037,0.729-2.045,2.195
		c-0.016,2.537-0.004,5.076-0.004,7.613V291.961z"/>
	<path fill="#3E92CF" d="M327.985,300.461v6.088c0.561-0.18,0.947-0.299,1.332-0.432c1.236-0.424,2.484-0.633,3.797-0.389
		c2.283,0.424,3.668,1.756,3.742,4.037c0.109,3.244,0.029,6.492,0.029,9.775c-1.068,0.48-2.08,0.305-3.248,0.156
		c-0.037-0.545-0.088-1.049-0.096-1.557c-0.029-2.436-0.018-4.875-0.072-7.311c-0.033-1.416-0.572-2.16-1.676-2.533
		c-1.148-0.387-2.785-0.039-3.412,0.861c-0.277,0.391-0.369,0.971-0.377,1.467c-0.035,2.488-0.016,4.977-0.016,7.461v1.451
		c-1.08,0.484-2.092,0.309-3.084,0.18c-0.355-1.127-0.389-17.9-0.039-19.256H327.985z"/>
	<path fill="#3E92CF" d="M90.702,312.512c-1.43,0.561-2.693,0.961-3.869,1.545c-0.959,0.477-1.232,1.248-1.039,2.137
		c0.203,0.939,1.111,1.486,2.475,1.492c1.424,0.008,2.217-0.492,2.42-1.521c0.01-0.047,0.01-0.096,0.01-0.143
		C90.702,314.934,90.702,313.844,90.702,312.512 M90.608,310.172c0.049-1.412-0.336-1.902-1.543-2.07
		c-1.461-0.201-2.852,0.096-4.203,0.643c-0.473,0.189-0.941,0.389-1.557,0.645v-2.619c0.744-0.232,1.488-0.617,2.26-0.686
		c1.752-0.154,3.527-0.318,5.271-0.188c1.973,0.152,3.184,1.537,3.213,3.412c0.047,3.209,0.016,6.412,0.008,9.621
		c-0.004,0.227-0.084,0.451-0.125,0.646c-1.635,0.469-2.355,0.373-3.252-0.459c-0.5,0.176-1.039,0.348-1.566,0.555
		c-1.197,0.465-2.396,0.549-3.656,0.266c-1.686-0.385-2.709-1.412-3.008-3.068c-0.309-1.672,0.107-3.18,1.604-4.148
		c0.752-0.488,1.615-0.82,2.459-1.137C87.848,311.08,89.213,310.648,90.608,310.172"/>
	<path fill="#3E92CF" d="M178.616,312.523c-1.408,0.553-2.664,0.953-3.832,1.529c-0.973,0.479-1.287,1.4-1.02,2.268
		c0.303,0.984,1.328,1.469,2.852,1.352c1.152-0.092,1.836-0.6,1.992-1.488c0.008-0.043,0.008-0.092,0.008-0.139
		C178.616,314.957,178.616,313.873,178.616,312.523 M181.956,319.744c-1.137-0.045-2.268,0.576-3.275-0.607
		c-0.488,0.16-1.033,0.307-1.553,0.512c-1.188,0.473-2.385,0.572-3.645,0.305c-1.744-0.373-2.752-1.426-3.111-3.133
		c-0.34-1.596,0.275-3.279,1.664-4.104c0.973-0.58,2.064-0.969,3.123-1.381c0.977-0.375,1.984-0.672,2.977-1.012
		c0.129-0.045,0.24-0.152,0.355-0.232c0.193-1.279-0.139-1.791-1.352-1.975c-1.504-0.232-2.939,0.062-4.336,0.627
		c-0.471,0.191-0.943,0.385-1.561,0.633v-2.393c0.824-0.832,1.996-0.973,3.102-1.096c1.32-0.145,2.676-0.145,4.004-0.049
		c2.455,0.176,3.676,1.553,3.688,4.023c0.016,2.869,0.008,5.736,0,8.605C182.036,318.84,181.991,319.213,181.956,319.744"/>
	<path fill="#3E92CF" d="M292.995,312.631c-0.992,0.303-1.812,0.52-2.607,0.82c-0.523,0.195-1.045,0.459-1.5,0.779
		c-0.672,0.477-1.029,1.172-0.777,1.988c0.24,0.775,0.828,1.287,1.648,1.393c0.561,0.072,1.145,0.076,1.701-0.004
		c0.916-0.133,1.459-0.693,1.52-1.613C293.043,314.959,292.995,313.918,292.995,312.631 M296.299,319.727
		c-1.152,0.045-2.277,0.516-3.297-0.6c-0.443,0.156-0.939,0.307-1.416,0.5c-1.279,0.512-2.58,0.631-3.928,0.287
		c-1.6-0.412-2.588-1.391-2.871-3.023c-0.281-1.611-0.004-3.096,1.439-4.068c0.779-0.523,1.68-0.889,2.568-1.229
		c1.332-0.508,2.695-0.932,3.996-1.371c0.295-1.32-0.049-1.912-1.236-2.096c-1.244-0.188-2.484-0.084-3.672,0.363
		c-0.664,0.248-1.32,0.525-1.969,0.785c-0.863-1.441-0.568-2.438,0.824-2.924c2.133-0.748,4.344-0.777,6.52-0.438
		c2.029,0.316,3.172,1.637,3.137,3.797c-0.049,2.92-0.008,5.84-0.012,8.76C296.379,318.842,296.334,319.219,296.299,319.727"/>
	<path fill="#3E92CF" d="M27.292,312.812c0.268,1.119,0.416,2.164,0.777,3.127c0.443,1.205,1.375,1.9,2.715,1.973
		c1.408,0.072,2.42-0.588,2.973-1.812c0.973-2.156,0.932-4.352-0.111-6.48c-0.553-1.115-1.529-1.715-2.773-1.688
		c-1.236,0.033-2.244,0.637-2.715,1.783C27.752,310.707,27.569,311.791,27.292,312.812 M30.94,320.283
		c-0.752-0.1-1.516-0.146-2.256-0.311c-1.984-0.43-3.316-1.689-3.992-3.545c-0.848-2.316-0.879-4.717,0.008-7.012
		c0.764-1.977,2.209-3.359,4.428-3.592c1.129-0.117,2.289-0.164,3.408-0.027c2.684,0.322,4.26,1.979,4.908,4.531
		c0.457,1.783,0.424,3.596-0.039,5.383c-0.705,2.701-2.785,4.365-5.592,4.484c-0.289,0.012-0.576,0-0.861,0
		C30.948,320.229,30.944,320.256,30.94,320.283"/>
	<path fill="#3E92CF" d="M131.198,306.014c1.127-0.074,2.211-0.432,3.203,0.496c0.461-0.143,0.949-0.344,1.457-0.436
		c0.975-0.184,1.971-0.459,2.947-0.416c2.656,0.113,4.24,1.525,4.377,4.168c0.164,3.232,0.039,6.484,0.039,9.768
		c-1.084,0.377-2.092,0.293-3.236,0.064c-0.031-0.5-0.08-0.959-0.08-1.424c-0.012-1.955-0.004-3.916-0.008-5.875
		c0-0.434,0.004-0.861-0.02-1.289c-0.137-2.379-1.615-3.393-3.904-2.672c-1.191,0.377-1.607,0.904-1.615,2.195
		c-0.021,2.533-0.008,5.068-0.008,7.602v1.391c-1.121,0.385-2.098,0.26-3.057,0.145C130.93,318.723,130.84,307.787,131.198,306.014"
		/>
	<path fill="#3E92CF" d="M189.735,319.729h-3.117c-0.287-1.121-0.375-11.252-0.143-13.492c1.211-0.527,2.223-0.465,3.348,0.232
		c0.889-0.24,1.791-0.625,2.719-0.701c1.072-0.088,2.205-0.059,3.24,0.193c1.396,0.344,2.232,1.416,2.605,2.795
		c0.135,0.504,0.234,1.037,0.238,1.557c0.021,2.916,0.014,5.828,0,8.744c0,0.18-0.084,0.359-0.143,0.596
		c-1.041,0.271-2.049,0.283-3.197-0.049c0-0.492,0-0.959,0-1.428c-0.004-2.34,0.029-4.684-0.016-7.023
		c-0.047-2.58-2.408-3.805-4.631-2.465c-0.77,0.465-0.904,1.172-0.904,1.969c0,2.436,0,4.875,0,7.312
		C189.735,318.484,189.735,319.004,189.735,319.729"/>
	<path fill="#3E92CF" d="M279.161,311.207c-0.018-1.244-0.342-2.26-1.461-2.768c-1.287-0.588-2.625-0.584-3.809,0.289
		c-0.807,0.592-1.211,1.412-0.924,2.479H279.161z M282.372,313.58h-9.367c-0.156,2.131,1.107,3.756,3.088,4.039
		c1.348,0.193,2.668,0.068,3.924-0.52c0.459-0.217,0.939-0.389,1.451-0.596c0.428,0.76,0.225,1.469,0.225,2.26
		c-0.301,0.18-0.596,0.428-0.936,0.557c-2.312,0.867-4.682,0.92-7.041,0.299c-2.008-0.523-3.271-1.9-3.848-3.883
		c-0.576-1.98-0.561-3.973,0.096-5.924c0.844-2.533,2.816-3.992,5.496-4.029c1.041-0.012,2.121,0.025,3.121,0.281
		c2.084,0.527,3.322,1.955,3.76,4.066C282.559,311.203,282.768,312.275,282.372,313.58"/>
	<path fill="#3E92CF" d="M251.811,311.213c0.205-2.391-1.664-3.287-3.404-3.123c-1.852,0.18-2.908,1.328-2.664,3.123H251.811z
		 M255.295,313.564h-9.553c-0.16,2.201,1.129,3.812,3.189,4.064c1.299,0.16,2.574,0.053,3.787-0.512
		c0.465-0.215,0.943-0.4,1.637-0.688c0.039,0.887,0.076,1.611,0.111,2.4c-0.504,0.244-0.908,0.5-1.348,0.646
		c-2.049,0.672-4.156,0.705-6.232,0.273c-2.252-0.465-3.695-1.912-4.312-4.141c-0.559-2.035-0.463-4.061,0.201-6.061
		c0.092-0.268,0.248-0.516,0.383-0.768c1.625-3.039,4.521-3.379,7.74-2.867c2.572,0.412,4.188,2.516,4.389,5.324
		C255.338,311.938,255.295,312.645,255.295,313.564"/>
	<path fill="#3E92CF" d="M324.782,283.119c0.035-2.041-1.098-3.168-3.061-3.133c-1.943,0.041-3.133,1.252-3.012,3.225
		c1.695,0,3.408,0.004,5.115-0.004C324.149,283.207,324.469,283.15,324.782,283.119 M328.252,285.494h-9.535
		c-0.092,2.762,1.959,4.553,4.688,4.186c0.885-0.117,1.736-0.473,2.6-0.736c0.396-0.125,0.777-0.293,1.32-0.496v2.477
		c-2.791,1.291-5.664,1.531-8.576,0.412c-1.547-0.598-2.588-1.812-3.068-3.4c-0.604-2.008-0.619-4.068-0.008-6.072
		c0.709-2.309,2.336-3.721,4.709-4.076c1.107-0.168,2.303-0.123,3.404,0.1c2.654,0.537,4.146,2.24,4.451,4.908
		C328.329,283.592,328.252,284.406,328.252,285.494"/>
	<path fill="#3E92CF" d="M289.495,277.977h2.961c0.043,0.447,0.123,0.859,0.123,1.268c0.016,2.004,0.004,4.012,0.008,6.02
		c0,0.477,0.004,0.957,0.037,1.432c0.15,2.152,1.16,2.984,3.279,2.754c1.416-0.152,2.293-1.236,2.24-2.473
		c-0.107-2.48-0.037-4.969-0.027-7.453c0-0.467,0.039-0.936,0.062-1.512h3.072v13.693c-1.131-0.021-2.219,0.432-3.172-0.572
		c-0.371,0.123-0.787,0.223-1.168,0.398c-1.312,0.602-2.703,0.625-4.08,0.457c-2.096-0.256-3.5-1.688-3.561-3.836
		c-0.096-3.244-0.008-6.496,0.01-9.744C289.28,278.328,289.358,278.244,289.495,277.977"/>
	<path fill="#3E92CF" d="M106.518,305.994c1.135-0.012,2.088-0.348,3.047,0.297c0.289,0.195,0.904,0.016,1.328-0.125
		c1.332-0.447,2.66-0.691,4.076-0.416c2.232,0.438,3.48,1.693,3.58,3.98c0.111,2.436,0.064,4.877,0.08,7.316
		c0.004,0.848,0,1.695,0,2.664h-3.195c-0.037-0.52-0.094-0.936-0.094-1.352c-0.012-2.105-0.004-4.209-0.004-6.312
		c0-0.289,0.01-0.576-0.004-0.863c-0.092-2.561-2.035-3.729-4.363-2.637c-0.961,0.447-1.252,1.24-1.248,2.223
		c0.008,2.389,0,4.781,0,7.174c0,0.52,0,1.035,0,1.5c-1.123,0.486-1.904,0.512-3.203,0.111V305.994z"/>
	<path fill="#3E92CF" d="M68.85,280.656c-0.584-0.168-1.072-0.309-1.613-0.463c-0.031-0.424-0.08-0.801-0.08-1.172
		c-0.004-0.373,0.041-0.744,0.072-1.189c0.529-0.135,1.018-0.26,1.605-0.412v-3.332c1.303-0.402,2.516-0.154,3.871-0.172
		c0.061,1.232,0.111,2.357,0.176,3.656h4.213v2.633c-1.289,0.623-2.764,0-4.289,0.428c0,0.775,0,1.576,0,2.371
		c0,1.48-0.027,2.965,0.012,4.445c0.049,1.604,0.732,2.104,2.328,1.768c0.592-0.129,1.186-0.271,1.928-0.443v2.764
		c-2.191,0.971-4.42,1.203-6.658,0.012c-1.193-0.637-1.541-1.764-1.553-3.02c-0.02-2.152-0.008-4.301-0.012-6.449
		C68.85,281.609,68.85,281.137,68.85,280.656"/>
	<path fill="#3E92CF" d="M71.559,301.377c0.072,0.244,0.16,0.42,0.168,0.6c0.016,0.568,0.004,1.137,0.004,1.873
		c-1.783,0.404-3.557,0.023-5.467,0.26c-0.133,1.232-0.049,2.508-0.064,3.775c-0.012,1.293,0,2.58,0,3.873v3.875v3.863
		c-1.229,0.598-2.348,0.24-3.637,0.293c-0.064-1.836-0.023-3.539-0.031-5.24c-0.008-1.721-0.004-3.443-0.004-5.164v-5.299
		c-1.84-0.041-3.58-0.072-5.412-0.109v-2.496C58.147,301.201,69.448,301.113,71.559,301.377"/>
	<path fill="#3E92CF" d="M161.352,288.754v2.596c-1.877,1.297-5.27,1.297-6.969,0.045c-1.133-0.836-1.297-2.072-1.32-3.328
		c-0.035-2.008-0.012-4.02-0.012-6.029c0-0.471,0-0.943,0-1.391c-0.553-0.156-0.996-0.285-1.545-0.441v-2.412
		c0.529-0.115,0.98-0.211,1.545-0.332v-3.371c1.309-0.381,2.527-0.164,3.936-0.188c0.02,0.695,0.049,1.291,0.057,1.891
		c0.012,0.561,0.004,1.121,0.004,1.805h4.26v2.801h-4.26c0,0.988,0,1.787,0,2.588c0,1.531-0.027,3.061,0.012,4.592
		c0.031,1.412,0.768,1.959,2.16,1.676C159.864,289.121,160.499,288.953,161.352,288.754"/>
	<path fill="#3E92CF" d="M232.125,277.971c1.121,0,2.221-0.443,3.18,0.58c1.512-0.625,3.092-1.084,4.809-0.9
		c2.229,0.244,3.855,1.607,3.943,3.809c0.129,3.332,0.033,6.676,0.033,9.984c-1.029,0.391-1.381,0.412-3.102,0.184
		c-0.031-0.385-0.1-0.797-0.1-1.209c-0.012-2.1,0.008-4.203-0.016-6.303c-0.008-0.664-0.072-1.336-0.191-1.992
		c-0.217-1.18-0.844-1.744-2.012-1.869c-0.377-0.039-0.766-0.039-1.141-0.004c-1.584,0.148-2.293,0.9-2.309,2.512
		c-0.023,2.393-0.008,4.781-0.008,7.168c0,0.525,0,1.049,0,1.701h-2.992C231.926,290.678,231.825,280.123,232.125,277.971"/>
	<path fill="#3E92CF" d="M203.333,291.359v-2.896c0.744-0.42,1.26,0.053,1.801,0.283c0.98,0.412,1.971,0.686,3.047,0.514
		c0.488-0.08,1.064-0.189,1.064-0.752c-0.004-0.4-0.268-0.941-0.592-1.176c-1.076-0.789-2.248-1.441-3.348-2.201
		c-1.176-0.805-1.736-1.912-1.797-3.389c-0.104-2.535,1.777-4.199,4.025-4.314c1.268-0.064,2.57,0.092,3.832,0.314
		c1.406,0.254,1.719,0.766,1.631,2.205c-0.023,0.363-0.145,0.721-0.252,1.244c-0.539-0.141-0.977-0.26-1.412-0.359
		c-0.832-0.193-1.66-0.426-2.5-0.541c-0.584-0.076-1.148,0.092-1.473,0.943c0.281,0.297,0.568,0.717,0.961,0.996
		c0.973,0.697,2.016,1.289,2.984,1.984c1.48,1.061,2.168,2.504,1.908,4.34c-0.264,1.889-1.436,2.973-3.189,3.461
		C207.768,292.646,205.584,292.295,203.333,291.359"/>
	<path fill="#3E92CF" d="M15.928,305.791c0.092-1.004,0.156-1.902,0.264-2.799c0.189-1.592,1.213-2.48,2.664-2.82
		c1.213-0.283,2.465-0.279,3.717,0.348v2.064c-2.787-0.428-3.436,0.283-2.984,3.264c0.957,0.045,1.936,0.092,2.992,0.145v2.096
		h-3.107v11.443c-1.133,0.473-2.145,0.328-3.217,0.164c-0.363-1.26-0.131-2.504-0.172-3.727c-0.043-1.293-0.008-2.586-0.008-3.877
		v-3.855c-0.725-0.061-1.367-0.113-2.141-0.172V306.1C14.608,305.996,15.241,305.896,15.928,305.791"/>
	<path fill="#3E92CF" d="M260.565,280.348c-0.656-0.168-1.109-0.287-1.605-0.412v-1.883c0.568-0.109,1.025-0.197,1.641-0.316v-3.48
		h3.26v3.619h4.332v2.273h-4.271c0,1.572,0,2.943,0,4.32c0,1.1-0.033,2.199,0.012,3.299c0.053,1.393,0.908,2.08,2.291,1.855
		c0.605-0.096,1.189-0.303,1.98-0.516c0.037,0.771,0.068,1.445,0.104,2.176c-2.02,0.865-3.951,1.045-5.906,0.236
		c-1.373-0.568-1.828-1.736-1.832-3.127c-0.01-2.297-0.004-4.588-0.004-6.885C260.565,281.133,260.565,280.756,260.565,280.348"/>
	<path fill="#3E92CF" d="M256.456,280.84c-0.709-0.221-1.408-0.496-2.137-0.648c-0.645-0.137-1.32-0.203-1.977-0.168
		c-0.527,0.027-1.027,0.283-1.156,0.904c-0.127,0.592,0.141,1.012,0.621,1.324c0.92,0.6,1.848,1.191,2.764,1.795
		c0.932,0.613,1.775,1.309,2.172,2.4c0.84,2.312-0.363,4.637-2.748,5.279c-2.168,0.58-4.256,0.281-6.363-0.607v-2.611
		c0.559,0.207,1.016,0.371,1.475,0.547c0.984,0.381,1.977,0.744,3.057,0.545c0.607-0.107,1.26-0.225,1.416-0.992
		c0.145-0.709-0.184-1.195-0.752-1.568c-0.6-0.391-1.199-0.787-1.799-1.176c-0.48-0.312-0.984-0.592-1.449-0.928
		c-1.76-1.283-1.992-2.504-1.637-4.389c0.293-1.531,1.793-2.723,3.58-2.824c1.182-0.062,2.389,0.061,3.557,0.273
		C256.811,278.307,257.075,278.912,256.456,280.84"/>
	<path fill="#3E92CF" d="M279.094,280.354c-0.627-0.15-1.084-0.264-1.592-0.387v-1.912c0.512-0.105,0.961-0.193,1.588-0.32v-3.465
		h3.279v3.602h4.438c0.035,0.76,0.066,1.348,0.1,1.996c-1.436,0.668-2.908,0.062-4.373,0.447c-0.043,0.271-0.135,0.58-0.139,0.893
		c-0.012,2.055-0.025,4.111,0,6.164c0.02,1.859,0.971,2.574,2.783,2.135c0.416-0.1,0.824-0.215,1.24-0.303
		c0.076-0.021,0.176,0.059,0.26,0.096c0.492,1.756,0.26,2.131-1.383,2.5c-1.236,0.275-2.449,0.318-3.682-0.025
		c-1.646-0.459-2.439-1.332-2.482-3.043c-0.061-2.389-0.029-4.775-0.037-7.164C279.094,281.186,279.094,280.811,279.094,280.354"/>
	<path fill="#3E92CF" d="M306.157,280.32c-0.545-0.111-0.916-0.18-1.289-0.264c-0.092-0.02-0.176-0.076-0.336-0.148
		c-0.027-0.283-0.084-0.607-0.092-0.932c-0.008-0.275,0.045-0.557,0.076-0.912c0.488-0.096,0.943-0.18,1.58-0.305
		c0.02-0.504,0.049-1.055,0.057-1.607c0.012-0.572,0.004-1.141,0.004-1.748c1.023-0.428,2.008-0.211,3.143-0.168
		c0.057,1.156,0.109,2.279,0.168,3.572c1.43,0.057,2.828,0.111,4.328,0.168v1.984c-1.379,0.512-2.852-0.004-4.303,0.352
		c-0.033,0.385-0.092,0.752-0.092,1.125c-0.014,1.867-0.021,3.73-0.004,5.6c0.023,2.303,0.951,2.988,3.199,2.391
		c0.352-0.092,0.703-0.18,1.199-0.307v2.004c-0.355,0.527-0.979,0.652-1.596,0.68c-1.088,0.049-2.199,0.168-3.26-0.004
		c-1.996-0.332-2.768-1.355-2.779-3.363c-0.016-2.205-0.004-4.404-0.004-6.609V280.32z"/>
	<path fill="#3E92CF" d="M266.45,308.877c-0.803-0.256-1.555-0.561-2.336-0.717c-0.596-0.119-1.256-0.152-1.844-0.023
		c-0.396,0.084-0.924,0.461-1.02,0.809c-0.092,0.344,0.176,0.932,0.475,1.203c0.594,0.541,1.316,0.939,1.988,1.396
		c0.557,0.371,1.145,0.699,1.664,1.115c1.393,1.121,1.916,2.568,1.492,4.328c-0.412,1.713-1.656,2.584-3.24,2.848
		c-1.988,0.332-3.992,0.266-5.947-0.684v-2.58c0.592,0.209,1.053,0.42,1.531,0.533c0.873,0.203,1.748,0.398,2.637,0.504
		c0.74,0.084,1.469-0.057,1.76-0.889c0.229-0.641-0.053-1.176-0.908-1.752c-0.992-0.664-2.012-1.283-3.012-1.936
		c-1.203-0.789-1.855-1.857-1.824-3.348c0.045-2.117,1.336-3.705,3.449-3.846c1.314-0.084,2.668,0.061,3.971,0.273
		c1.369,0.223,1.461,0.451,1.439,1.824c0,0.188-0.008,0.379-0.043,0.566C266.67,308.588,266.59,308.664,266.45,308.877"/>
	<path fill="#3E92CF" d="M321.549,308.834c-0.521-0.16-0.949-0.34-1.396-0.424c-0.973-0.176-1.973-0.496-2.932-0.416
		c-1.961,0.164-2.992,1.168-3.434,3.092c-0.314,1.369-0.283,2.756,0.156,4.102c0.5,1.531,1.701,2.363,3.336,2.443
		c1.172,0.061,2.273-0.172,3.344-0.629c0.248-0.107,0.518-0.176,0.92-0.311v2.402c-0.508,0.172-1.104,0.438-1.727,0.58
		c-1.789,0.416-3.584,0.5-5.369-0.035c-1.656-0.5-2.836-1.557-3.52-3.129c-1.316-3.039-0.68-7.107,1.465-9.07
		c1.352-1.236,2.928-1.801,4.688-1.789c1.084,0.004,2.184,0.205,3.244,0.439c1.291,0.293,1.359,0.453,1.336,1.773
		C321.657,308.139,321.6,308.414,321.549,308.834"/>
	<path fill="#3E92CF" d="M223.797,273.375h3.271v18.297h-3.131C223.584,290.707,223.458,275.752,223.797,273.375"/>
	<path fill="#3E92CF" d="M304.079,319.697c-1.264,0.148-2.244,0.277-3.281-0.088v-13.592c1.201-0.043,2.377-0.568,3.305,0.672
		c1.428-0.475,2.836-1.156,4.539-0.736v2.861c-0.832-0.045-1.623-0.117-2.416-0.117c-1.574-0.004-2.088,0.449-2.119,2.018
		c-0.053,2.439-0.023,4.883-0.027,7.322C304.079,318.551,304.079,319.062,304.079,319.697"/>
	<path fill="#3E92CF" d="M44.442,319.729h-2.908c-0.32-1.1-0.416-11.207-0.16-13.475c1.34-0.621,2.367-0.496,3.316,0.42
		c1.416-0.477,2.818-1.152,4.391-0.736c0.336,1.1,0.344,1.461,0.053,2.863c-0.248,0-0.516,0.008-0.783-0.004
		c-0.713-0.027-1.434-0.123-2.141-0.084c-1.061,0.061-1.504,0.537-1.541,1.668c-0.047,1.385-0.016,2.768-0.02,4.152
		c-0.008,1.576-0.016,3.152-0.031,4.729C44.614,319.35,44.553,319.438,44.442,319.729"/>
	<path fill="#3E92CF" d="M60.965,277.703h3.549c0.383,1.115,0.52,7.184,0.303,13.043c-0.016,0.404-0.127,0.809-0.199,1.244H61.11
		C60.747,290.982,60.629,279.93,60.965,277.703"/>
	<path fill="#3E92CF" d="M76.11,319.711h-3.148v-13.617c1.152-0.227,2.287-0.584,3.225,0.605c1.455-0.508,2.902-1.209,4.623-0.701
		v2.869c-0.553-0.057-1.047-0.113-1.543-0.156c-2.652-0.217-3.152,0.24-3.156,2.867c0,2.205,0,4.404,0,6.605V319.711z"/>
	<rect x="163.702" y="277.711" fill="#3E92CF" width="3.676" height="14.248"/>
	<path fill="#3E92CF" d="M123.038,319.73v-13.533c1.07-0.471,2.084-0.324,3.195-0.135v13.523
		C125.241,320.033,124.233,319.793,123.038,319.73"/>
	<path fill="#3E92CF" d="M101.551,319.699c-1.043,0.16-2.02,0.266-3.039-0.086v-13.586h3.043c0.096,0.305,0.232,0.561,0.252,0.828
		C102.024,309.939,101.868,318.58,101.551,319.699"/>
	<path fill="#3E92CF" d="M274.157,291.684h-2.855c-0.301-1.094-0.393-11.461-0.137-13.557c0.936-0.477,1.928-0.107,2.865-0.225
		C274.401,278.971,274.497,289.834,274.157,291.684"/>
	<path fill="#3E92CF" d="M62.778,276.086c-1.469,0.02-2.221-0.637-2.248-1.963c-0.031-1.373,0.748-2.121,2.248-2.152
		c1.375-0.029,2.232,0.729,2.268,2.004C65.086,275.354,64.325,276.066,62.778,276.086"/>
	<path fill="#3E92CF" d="M165.506,276.031c-1.58,0-2.184-0.543-2.188-1.973c-0.004-1.402,0.787-2.119,2.303-2.1
		c1.416,0.025,2.137,0.744,2.133,2.141C167.747,275.471,167.094,276.031,165.506,276.031"/>
	<path fill="#3E92CF" d="M100.053,303.824c-1.316-0.004-1.904-0.553-1.896-1.756c0.012-1.18,0.607-1.697,1.957-1.705
		c1.359-0.004,1.859,0.469,1.852,1.756C101.958,303.348,101.417,303.828,100.053,303.824"/>
	<path fill="#3E92CF" d="M124.75,300.363c1.305,0.012,1.881,0.568,1.865,1.789c-0.018,1.123-0.686,1.684-1.996,1.672
		c-1.354-0.016-1.832-0.488-1.812-1.797C122.827,300.809,123.358,300.352,124.75,300.363"/>
	<path fill="#3E92CF" d="M272.61,275.729c-1.373-0.012-1.863-0.488-1.832-1.76c0.031-1.141,0.672-1.676,2-1.668
		c1.236,0.004,1.855,0.625,1.832,1.824C274.586,275.305,274.038,275.746,272.61,275.729"/>
</g>
<g>
	<path fill="#3E92CF" d="M99.012,92.994c-0.076-0.297-0.061-0.68-0.232-0.797c-0.293-0.203-0.705-0.223-1.057-0.348
		c-0.42-0.152-0.828-0.332-1.291-0.523c-0.361,0.691,0.055,1.016,0.664,1.195C97.665,92.693,98.252,92.811,99.012,92.994
		 M75.487,87.723c-1.244,1.738-1.455,2.176-1.604,3.295c0.828-0.852,1.564-1.615,2.309-2.381
		C75.907,88.27,75.739,88.055,75.487,87.723 M64.192,80.57c-0.553-1.16-0.748-1.301-1.645-1.164c-0.6,0.092-1.271,0.156-1.145,1.164
		H64.192z M95.612,94.789c-0.027-0.139-0.057-0.279-0.08-0.42c-0.436,0.029-0.881-0.004-1.297,0.1
		c-0.459,0.117-0.891,0.354-1.436,0.576c-0.084,0.4-0.207,0.988-0.332,1.576C93.2,95.465,94.563,95.373,95.612,94.789
		 M100.059,69.902c-0.959,0.172-2.467-0.568-3.031,1.303c1.191,0.568,1.4-1.143,2.492-0.875c0.139,0.16,0.352,0.4,0.551,0.627
		c-0.279,0.521-0.523,0.98-0.771,1.449c0.205,0.512,0.404,1.004,0.604,1.5c0.08-0.023,0.16-0.053,0.24-0.076
		c-0.08-0.381-0.156-0.756-0.191-0.924c0.596-0.512,1.057-0.908,1.5-1.289C100.94,70.986,100.555,70.514,100.059,69.902
		 M107.563,54.658c-0.676,0.34-1.256,0.635-1.84,0.932c0.256,0.633,0.492,1.229,0.725,1.809c0.385,0.127,0.744,0.252,1.168,0.391
		c0.469-0.535,0.951-1.092,1.512-1.73C108.528,55.518,108.043,55.09,107.563,54.658 M114.323,80.57
		c0.633-0.928-0.547-1.152-0.527-1.773c0.02-0.627,0.111-1.256,0.205-2.172c-0.572,0.66-0.988,1.141-1.346,1.553
		c-0.928,0.217-1.783,0.416-2.439,0.568c-0.141,0.771-0.236,1.291-0.332,1.824H114.323z M54.987,82.086
		c0.205,1.783,0.393,3.416,0.568,4.955c0.801,0.305,1.369,1.033,2.176,0.068c-0.996-0.66-0.58-1.52-0.24-2.359
		c0.35-0.855,0.736-1.691,1.156-2.664H54.987z M67.368,72.746c0.252,0.092,0.297,0.119,0.336,0.119c0.096,0,0.209,0.021,0.279-0.023
		c1.652-1.049,3.08-0.709,4.508,0.535c0.857,0.748,2.109,0.346,3.137,0.674c0.053,0.016,0.168-0.168,0.08-0.076
		c-1.801-1.824-3.564-3.609-5.379-5.453C69.168,69.701,68.151,71.094,67.368,72.746 M106.508,103.773
		c-0.244,0.641-0.4,1.072-0.576,1.496c-0.473,1.156-0.357,1.592,0.775,2.176c0.855,0.449,1.359,1.133,1.732,1.98
		c-0.629,0.889-1.232,1.74-1.721,2.428c0.225,0.861,0.404,1.561,0.617,2.373c1.734-1.168,3.412-2.48,5.047-4.27
		c-1.232,0.084-1.832-0.311-2.064-1.256c-0.146-0.584-0.26-1.26-0.627-1.684C108.743,105.914,107.661,104.93,106.508,103.773
		 M72.1,89.75c-1.152-0.367-1.771-1.121-2.029-2.205c-0.303,0.061-0.523,0.105-0.783,0.156c-0.232-0.328-0.473-0.664-0.623-0.879
		c-1.045-0.201-1.941-0.369-2.9-0.553c0.719,3.121,2.264,5.816,4.455,8.229c1.088-1.141,2.096-2.193,3.104-3.252
		c-0.631-0.717-0.631-0.717-0.852-2.709C72.333,88.994,72.219,89.361,72.1,89.75 M92.364,115.326
		c-0.504-1.465-1.447-2.412-2.713-2.988c-1.34,0.152-2.615,0.299-3.875,0.439c-0.289,1.412-0.252,7.373,0.057,8.465
		c3.07-0.109,6.119-0.385,9.283-1.42c-0.58-0.477-0.973-0.9-1.447-1.168C92.215,117.85,91.844,116.99,92.364,115.326 M53.883,86.41
		c-0.123-1.436-0.248-2.881-0.367-4.297h-8.525c-0.055,4.285,0.754,8.309,2.186,12.424c1.016-0.154,1.975-0.303,2.898-0.447
		c0.145-0.504,0.4-0.904,0.324-1.225c-0.332-1.443,0.117-2.736,0.84-3.883C51.879,87.957,52.36,86.67,53.883,86.41 M98.092,67.43
		c-3.732-3.26-7.713-5.012-12.4-5.207v8.279c0.828,0.156,1.568,0.291,2.176,0.408c0.752-0.48,1.381-0.881,2.016-1.285
		c0.732,0.693,0.209,1.205,0.092,1.648c-0.635,0.516-1.6,0.393-1.82,1.363c0.645-0.1,1.27-0.367,1.785-0.227
		c0.6,0.164,1.1,0.684,1.58,1.008c1.111-0.168,0.924-1.184,1.359-1.752c0.625-0.461,1.633-0.352,1.957-1.34
		c-0.27-0.049-0.529-0.096-0.885-0.164c-0.045-0.385-0.092-0.785-0.16-1.336c0.484,0.107,0.824,0.18,1.156,0.252
		c0.447-0.412,0.844-0.916,1.359-1.209C96.749,67.617,97.329,67.605,98.092,67.43 M106.315,61.373
		c-2.066,2.068-4.02,4.021-6.076,6.076c0.529,0.504,1.129,1.08,1.773,1.701c-0.168,0.76,0.672,1.172,0.887,1.828
		c0.477,0.15,0.873,0.355,1.289,0.398c0.947,0.102,1.572,0.561,1.988,1.42c0.156,0.316,0.488,0.568,0.783,0.793
		c0.393,0.301,0.824,0.539,1.244,0.809c1.447-1.152,1.912-1.102,3.068,0.268c0.451,1.016-0.885,1.691-0.244,2.729
		c1.443-0.229,1.836-1.533,2.244-2.518c0.404-0.982-0.064-2.131-0.424-3.18c-0.512-1.496-2-1.752-3.221-2.555
		c0.363-0.617,0.709-1.193,1.104-1.865c-0.818-0.973-1.07-2.547-2.566-3.152c-0.064-0.027-0.113-0.156-0.125-0.242
		C107.887,62.727,106.848,62.223,106.315,61.373 M84.051,62.293C79.735,62.09,73.92,64.625,71.7,67.418
		c0.959,0.973,1.928,1.951,2.904,2.928c1.012,1.016,2.012,2.049,3.051,3.037c0.545,0.52,2.117,0,2.229-0.377
		c-0.107-0.604-0.16-0.893-0.207-1.18c0.066-0.016,0.139-0.033,0.211-0.053c0.113,0.125,0.229,0.248,0.324,0.352
		c0.309-0.451,0.617-0.91,0.812-1.199c1.145-0.152,2.072-0.275,3.027-0.404V62.293z M111.192,86.674
		c0.48-0.217,0.893-0.496,1.34-0.576c0.58-0.104,0.871,0.229,0.801,0.973h-1.625c0.225,0.471,0.436,0.912,0.736,1.531
		c-1.779,0.156-3.121,1.34-4.844,0.961c-0.777,0.932-0.777,0.932-1.748,0.398c-0.664,1.148-1.324,2.293-1.996,3.457
		c0.359,0.057,0.752,0.119,0.977,0.16c0.859,0.912,0.783,1.859,0.512,2.779c-0.428,1.436-0.949,2.844-1.381,4.129
		c-0.844,0.492-1.512,0.451-2.211,0.139c-0.477-0.211-0.984-0.355-1.488-0.492c-1.004-0.268-2.045-0.439-3.012-0.795
		c-0.602-0.221-0.92-0.092-1.244,0.283c1.088,0.373,2.115,0.736,3.146,1.076c1.584,0.525,3.174,1.088,4.92,0.133
		c0.361-0.805,0.709-1.793,1.678-2.332c0.16,0.139,0.318,0.217,0.359,0.332c0.268,0.76,0.508,1.531,0.76,2.307
		c4.699-4.422,8.164-14.012,7.447-19.023h-6.248c0.74,1.461,1.389,2.736,2.041,4.023C110.483,86.322,110.864,86.514,111.192,86.674
		 M84.887,93.055c0.412,0.615,0.656,0.979,1.092,1.627c0.189-0.867,0.301-1.381,0.449-2.064c-3.596,0.344-6.6-0.648-8.928-2.604
		c-2.061,2-4.004,3.885-6,5.82c2.844,2.596,6.164,4.367,10.07,4.896c0.908,0.123,1.861-0.105,2.793-0.168
		c1.133-1.201,2.641-0.877,4.043-1.049c0.281,0.34,0.537,0.656,0.854,1.037c0.904-0.305,1.76-0.586,2.607-0.885
		c0.156-0.057,0.42-0.205,0.412-0.279c-0.129-1.033,0.736-0.533,1.164-0.953c-0.061,0.473-0.092,0.736-0.156,1.264
		c1.012-0.508,1.797-0.904,2.6-1.307c-0.072-0.568-0.119-0.965-0.199-1.621c-0.877,0.527-1.561,0.945-2.248,1.363
		c-0.416-0.264-0.768-0.486-1.252-0.791c0.088,0.42,0.148,0.713,0.203,0.963c-0.867,0.938-1.352-0.055-2.027-0.375
		c-0.145,0.352-0.26,0.645-0.348,0.867c-0.816-0.428-1.637-0.855-2.588-1.355c-0.508,0.373-1.186,0.691-1.613,1.217
		c-0.711,0.867-1.604,1.387-2.684,1.799c-0.295-0.234-0.623-0.496-0.988-0.783c0.121-0.787,0.24-1.564,0.348-2.271
		c0.736-0.121,1.266-0.209,2.164-0.352c-1.02-0.809-1.256-1.59-0.844-2.529c-0.395,0.164-0.699,0.293-1.291,0.541
		c0.195-0.676,0.316-1.094,0.451-1.564c0.445,0.152,0.744,0.26,0.98,0.34C84.284,93.562,84.559,93.33,84.887,93.055 M64.364,102.846
		c4.549,4.893,15.305,9.328,19.6,8.012c-0.832-0.139-1.588-0.42-2.32-0.359c-1.035,0.088-1.787-0.352-2.408-1.008
		c-0.971-1.033-1.891-2.129-2.23-3.236c0.508-1.027,0.891-1.812,1.352-2.748c0.42-0.344,0.988-0.812,1.729-1.424
		c-3.85-0.945-7.057-2.744-9.777-5.172C68.28,98.934,66.36,100.854,64.364,102.846 M55.112,80.666c1.348,0,2.535,0.004,3.725-0.004
		c0.711-0.004,1.076-0.439,1.062-1.084c-0.012-0.756,0.225-1.396,0.621-2.008c0.432-0.668,0.852-1.348,1.164-1.844
		c0.852-0.248,1.516-0.445,2.172-0.637c-0.072-0.352-0.117-0.576-0.188-0.932c1.447-0.369,2.035-1.504,2.604-2.689
		c0.283-0.6,0.656-1.168,1.047-1.703c0.637-0.875,1.32-1.715,1.84-2.383c-2.008-2.01-3.955-3.957-5.951-5.957
		C58.172,66.674,55.463,73.037,55.112,80.666 M124.639,80.521c-0.064-5.047-1.16-9.764-3.043-14.229
		c-0.912,0.24-1.664,0.441-2.369,0.625c-0.656-0.828-1.139-1.545-1.727-2.16c-0.641-0.68-1.32-1.26-2.217-1.713
		c-1.279-0.65-2.98-1.008-3.287-2.879c-1.484,0.24-2.178-0.732-2.85-1.789c-0.496,0.506-0.92,0.938-1.379,1.4
		c0.363,0.613,0.66,1.32,1.145,1.869c0.65,0.74,1.359,1.412,1.691,2.375c0.088,0.26,0.268,0.557,0.492,0.693
		c0.58,0.359,1.176,0.68,1.592,1.246c0.092,0.121,0.271,0.182,0.416,0.27c-0.24,0.348-0.424,0.611-0.625,0.898
		c0.168,0.289,0.252,0.668,0.457,0.754c0.84,0.336,0.943,1.096,1.26,1.791c0.4,0.885,0.191,1.912,0.84,2.775
		c0.225,0.293,0.443,1.205-0.119,1.766c-0.049,0.043,0.027,0.211,0.031,0.246c0.488-0.143,0.604-0.91,1.371-0.615
		c0.014,0.791,0.102,1.58-0.371,2.324c-0.164,0.26-0.268,0.627-0.24,0.936c0.096,1.129,0.26,2.252,0.404,3.416H124.639z
		 M70.708,65.926c1.783-1.439,3.809-2.844,6.145-3.779c2.312-0.928,4.744-1.281,7.16-1.549v-8.375
		c-6.273-0.262-14.613,2.943-19.428,7.939C66.592,62.055,68.6,63.941,70.708,65.926 M102.651,46.281
		c-4.439-2.795-14.332-4.875-17.004-4.004v3.037c0.389,0.264,0.705,0.482,1.109,0.76c-0.465,0.271-0.781,0.455-1.068,0.623v3.854
		c0.648,0.055,1.207,0.082,1.764,0.15c1.184,0.145,2.371,0.273,3.549,0.473c2.607,0.443,5.059,1.389,7.459,2.455
		c0.939,0.416,1.732,0.441,2.336-0.486c0.633,0.436,0.633,1.402,1.676,1.643c-0.42-0.764-0.744-1.348-1.068-1.932
		c0.438-0.053,0.77,0.016,0.961,0.221c0.5,0.512,0.943,1.076,1.393,1.631c0.424,0.533,0.891,0.812,1.551,0.412
		c-0.24-1.127-0.471-2.219-0.668-3.156c-0.303-0.6-0.527-1.078-0.779-1.547c-0.332-0.613-0.645-1.244-1.049-1.805
		c-0.295-0.404-0.73-0.707-1.135-1.08C102.016,47.094,102.336,46.686,102.651,46.281 M85.659,60.678
		c5.193,0.252,9.584,2.123,13.385,5.541c2.076-2.064,4.064-4.041,6.045-6.014c-4.176-4.68-14.938-8.996-19.43-7.844V60.678z
		 M57.067,109.895c7.629,7.275,16.518,11.047,26.957,11.336v-8.541c-6.621-0.215-12.564-2.271-17.977-6.057
		c0.285,0.518,0.564,1.037,0.832,1.521c-0.42,1.008-1.068,1.363-2.064,1.252c-0.752-0.084-1.486,0-2.215,0.355
		c-1.588,0.775-3.184,1.031-4.584-0.436c-0.029-0.029-0.092-0.021-0.225-0.045C57.627,109.422,57.42,109.598,57.067,109.895
		 M107.799,102.598c1.049,1.096,1.969,2.057,2.928,3.061c0.041-0.217,0.053-0.443,0.129-0.648c0.08-0.213,0.225-0.404,0.32-0.58
		c1.295,0.084,1.639,0.363,1.908,1.512c0.199,0.869,0.398,1.736,0.611,2.664c6.275-5.447,12.084-19.832,10.744-26.592
		c-2.771,0.02-5.564-0.035-8.404,0.031C115.807,90.102,112.967,96.922,107.799,102.598 M34.799,82.086
		c0.023,13.928,6.812,26.988,13.992,33.623c1.957-1.955,3.908-3.908,5.92-5.916c-0.879-0.779-1.396-2.115-2.783-2.57
		c-1.16-0.377-1.992-1.109-2.209-2.361c-0.504,0.061-0.951,0.117-1.496,0.18c-0.664-0.84-1.303-1.65-1.787-2.268
		c-1.16-0.82-2.148-1.52-3.18-2.252c-0.105,0.076-0.328,0.236-0.549,0.393c-0.221-0.08-0.436-0.1-0.568-0.221
		c-0.352-0.311-0.635-0.703-1.004-0.992c-0.188-0.146-0.492-0.146-0.863-0.244c0.508,1.697,0.508,1.697,0.172,2.717
		c-1.516-1.561-1.912-3.477-2.279-5.4c0.096-0.039,0.188-0.08,0.283-0.119c0.156,0.264,0.316,0.527,0.477,0.795
		c0.084-0.035,0.168-0.066,0.256-0.104c-0.201-0.691-0.396-1.389-0.592-2.076c0.959-0.256,1.023-0.324,1.227-1.412
		c0.328-0.107,0.668-0.225,1.025-0.344c0.156,0.473,0.283,0.855,0.467,1.404c0.848-0.535,1.588-1.004,2.281-1.439
		c0.6,0.451,0.863,1.219,1.818,0.723c-1.307-3.912-1.832-7.996-2.074-12.115H34.799z M56.043,54.15
		c-6.951,7.436-10.82,16.123-11.076,26.367c1.932,0.264,7.523,0.201,8.6-0.084c0.213-3.768,0.938-7.447,2.434-10.947
		c1.49-3.504,3.66-6.568,6.164-9.268C60.096,58.166,58.135,56.223,56.043,54.15 M84.036,41.998
		c-10.381,0.271-19.16,3.977-26.729,10.963c1.992,2.121,3.941,4.117,6.08,6.053c5.916-5.381,12.744-8.203,20.648-8.428V41.998z
		 M89.252,38.883c0.146,1.096,0.691,1.875,1.912,2.051c4.531,0.645,8.799,2.096,12.863,4.184c0.291,0.152,0.68,0.424,0.912,0.336
		c1.096-0.416,2.131-0.143,3.312,0.266c-0.225-0.521-0.373-0.869-0.561-1.309c0.836-0.352,1.572-0.469,2.156,0.191
		c0.412,0.465,0.939,1.008,0.395,1.729c-0.279,0.012-0.512,0.023-0.738,0.035c0.752,0.58,1.535,1.037,2.115,1.676
		c0.615,0.689,1.035,1.553,1.676,2.553c0.137,0.057,0.52,0.221,1.012,0.428c1.645-1.771,3.293-3.543,5.033-5.416
		c-9.393-8.775-20.588-13.367-33.664-13.764v6.908c1.119-0.229,2.172-0.439,3.219-0.652c0.236-0.047,0.48-0.061,0.705-0.133
		c1.543-0.523,3.012-1.447,4.76-0.84c0.096,0.037,0.248-0.119,0.383-0.143c0.072-0.014,0.16,0.072,0.285,0.131v0.924
		C93.096,38.27,91.303,39.105,89.252,38.883 M85.672,131.361c6.547-0.111,12.756-1.4,18.688-3.967
		c5.752-2.488,10.916-5.854,15.236-10.221c-2.041-2.041-3.992-3.992-5.889-5.893c-2.248,1.693-4.576,3.441-6.893,5.201
		c-0.18,0.135-0.379,0.332-0.436,0.539c-0.203,0.713-0.725,1.121-1.328,1.424c-1.74,0.881-3.203,2.18-4.959,3.068
		c-1.088,0.553-1.9,0.664-2.904,0.164c-0.301-0.148-0.596-0.301-0.625-0.316c-3.775,0.584-7.299,1.129-10.891,1.684V131.361z
		 M43.417,80.594c0.348-10.783,4.295-19.969,11.523-27.488c-2.057-2.055-4.004-4.008-6.061-6.064
		c-8.9,9.316-13.699,20.438-14.072,33.553H43.417z M84.028,31.869C70.899,32.227,59.727,36.91,50.219,45.73
		c1.076,1.479,5.164,5.475,6.121,6c3.811-3.438,8.008-6.305,12.803-8.262c4.777-1.951,9.781-2.754,14.885-3.07V31.869z
		 M134.891,80.525c-0.459-13.096-5.168-24.244-14.316-33.707c-2.096,2.107-4.096,4.119-6.211,6.244
		c0.539,0.73,0.889,1.447,1.443,1.906c0.965,0.797,1.713,1.785,2.613,2.613c1.535,1.408,2.492,3.232,3.775,4.812
		c0.52,0.643,0.896,1.439,0.672,2.398c-0.084,0.365,0.129,0.832,0.287,1.221c1.762,4.229,2.758,8.623,2.949,13.201
		c0.02,0.451,0.135,0.895,0.203,1.311H134.891z M120.864,115.965c5.648-5.906,9.637-12.66,11.959-20.379
		c1.32-4.393,2.021-8.881,2.01-13.516h-8.621c-0.215,5.16-1.072,10.16-3.02,14.932c-1.969,4.832-4.904,9.027-8.42,12.939
		C116.811,111.961,118.776,113.906,120.864,115.965 M50.155,117.051c3.297,3.883,10.953,9.066,18.5,11.619
		c4.996,1.688,10.102,2.607,15.365,2.688v-8.557c-10.861-0.375-20.213-4.26-27.932-11.688
		C54.059,113.143,52.139,115.062,50.155,117.051 M83.844,73.441c-0.373,0.023-0.648,0.152-0.609,0.596
		c0.037,0.469,0.076,0.932,0.113,1.34c-1,1.141-1,1.141-3.004,1.781c-0.74,0.832-1.361,1.52-1.969,2.203
		c0.549,0.053,0.977,0.092,1.523,0.145c-0.223,0.545-0.371,0.904-0.531,1.305c-0.461-0.609-0.855-0.217-1.297-0.117v1.629
		c-0.146,0.264-0.295,0.523-0.475,0.84c-0.244-0.029-0.516-0.057-0.805-0.088c-0.211-0.568-0.412-1.084-0.523-1.385
		c-0.732-0.127-1.271-0.225-2-0.348c-0.248,0.408-0.736,0.867-0.76,1.348c-0.033,0.645-0.525,0.865-0.969,1.344
		c1.152-0.104,2.104-0.139,3.041-0.279c0.748-0.111,1.479-0.457,2.348,0.359c0.051-0.803,0.084-1.312,0.115-1.816
		c0.148-0.066,0.404-0.111,0.424-0.207c0.057-0.275,0.02-0.572,0.02-0.863l0.285-0.084c0.18,0.326,0.359,0.654,0.539,0.982
		c0.145-0.066,0.328-0.156,0.633-0.299v1.004c-0.256-0.025-0.457-0.045-0.648-0.061c0.412,1.396-1.107,2.057-1.043,3.236
		c-0.668,0.08-1.396-0.564-1.641,0.535c0.217,0.27,0.469,0.584,0.664,0.828c1.305-0.203,1.123-2.207,2.672-1.863
		c0.076-0.701,0.145-1.352,0.211-1.988c1.438-0.236,2.797-0.768,4,0.268c0.24,0.916,0.033,1.689-0.443,2.404
		c-0.08,0.115-0.215,0.229-0.232,0.352c-0.199,1.557-1.135,2.189-2.631,2.137c-0.24-0.012-0.492-0.035-0.713,0.037
		c-0.316,0.104-0.604,0.291-1.131,0.555c1.004,0.535,1.748,0.936,2.615,1.4v-1.584c0.705,0.268,1.275,0.48,2.049,0.771
		c-0.504,0.457-0.801,0.725-1.213,1.096c1.133,0.102,2.16,0.189,3.24,0.281c0.645-1.365,1.217-2.584,1.787-3.801h2.412
		c0.76-1.129,1.281-2.199,0.072-3.5c0.881-0.133,1.512-0.232,2.145-0.328c-0.012-0.092-0.027-0.188-0.041-0.279
		c-0.482,0.061-0.967,0.119-1.398,0.176c-0.664-0.877-1.285-1.697-1.928-2.545c0.242-0.406,0.504-0.848,0.73-1.234
		c-0.115-0.648-0.223-1.244-0.303-1.705c-0.445-0.32-0.904-0.512-1.152-0.859c-0.789-1.092-1.789-1.66-3.041-1.492
		c-0.398-0.352-0.711-0.645-1.035-0.912c-0.496-0.408-0.568-0.852-0.156-1.359H84.7c-0.035-0.512-0.064-0.9-0.096-1.385
		c-0.668,0.107-1.213,0.195-1.744,0.283v0.689C83.249,73.162,83.543,73.301,83.844,73.441 M61.963,88.357L62,88.395
		c-0.244-0.629-1.369-0.641-1.117-1.672c0.232-0.072,0.488-0.152,0.889-0.273v-2.635c0.58,0.479,0.955,0.791,1.371,1.135
		c0.357-0.16,0.697-0.316,0.949-0.432c0.592-0.959-0.133-1.652-0.225-2.459h-1.797c-0.088,0.371-0.168,0.715-0.252,1.062
		c-0.531,0.057-0.996,0.105-1.486,0.156c-0.117,0.568-0.221,1.068-0.328,1.596c-0.588,0.152-1.129,0.293-1.785,0.465
		c0.129,0.916,0.248,1.779,0.365,2.604c0.512,0.656,1.004,1.293,1.5,1.932c-0.193,0.342-0.336,0.605-0.514,0.92
		c0.354-0.027,0.609-0.043,0.916-0.066c0.084,1.471,0.469,2.779,1.473,3.799c-0.805,0.984-0.951,2.18-0.211,3.189
		c0.734,1.008,0.943,2.043,0.76,3.15c-0.229,0.504-1.102,0.404-0.904,1.168c0.799,0.221,1.371-0.088,1.916-0.646
		c1.436-1.477,2.904-2.918,4.355-4.377c0.428-0.424,0.844-0.863,1.279-1.312c-2.26-2.512-3.779-5.303-4.752-8.424
		c-0.303-0.051-0.58-0.08-0.844-0.152c-0.26-0.07-0.508-0.18-0.855-0.307c-0.061,0.352-0.1,0.607-0.148,0.883
		c0.312-0.023,0.545-0.039,0.777-0.061l0.111,0.232c-0.279,0.205-0.561,0.412-0.824,0.609
		C62.417,88.438,62.188,88.398,61.963,88.357 M84.856,132.891c-28.52,0.02-51.312-23.266-51.6-50.816
		C32.963,53.602,56.333,29.75,85.997,30.35c29.02,0.584,50.619,24.561,50.428,51.416C136.215,109.99,112.739,133.029,84.856,132.891
		"/>
	<path fill="#3E92CF" d="M131.706,142.223c-1.564,1.771-3.461,2.867-5.564,3.572c-8.34,2.807-16.668,2.875-24.992-0.145
		c-2.824-1.027-5.691-1.932-8.557-2.84c-1.656-0.529-3.367-0.621-5.143-0.312c2.967,1.352,5.912,2.729,8.592,4.592
		c2.711,1.885,5.248,3.969,7.459,6.68c-0.9,0.301-1.648,0.553-2.477,0.832c-1.168-1.324-2.264-2.635-3.436-3.879
		c-3.264-3.465-7.051-6.133-11.631-7.6c-0.68-0.217-1.273-0.209-1.945,0c-4.947,1.531-8.936,4.482-12.371,8.26
		c-0.932,1.023-1.809,2.1-2.816,3.275c-0.732-0.24-1.516-0.5-2.488-0.824c2.244-2.779,4.76-4.939,7.541-6.799
		c2.74-1.832,5.707-3.24,8.752-4.533c-1.961-0.355-3.881-0.264-5.748,0.34c-2.729,0.881-5.453,1.76-8.145,2.732
		c-4.779,1.729-9.691,2.58-14.768,2.217c-3.725-0.27-7.4-0.873-10.893-2.277c-1.859-0.748-3.596-1.691-5.115-3.535
		c0.607,0.191,0.912,0.279,1.207,0.381c3.709,1.283,7.496,1.494,11.309,0.688c3.588-0.77,7.148-1.68,10.721-2.525
		c4.994-1.184,10.031-1.375,15.088-0.512c2.676,0.461,5.314,1.117,7.982,1.629c0.529,0.104,1.133,0.051,1.656-0.088
		c3.473-0.924,6.992-1.496,10.572-1.812c5.66-0.492,11.129,0.412,16.561,1.875c2.436,0.66,4.912,1.182,7.396,1.641
		c3.504,0.648,6.947,0.273,10.303-0.904c0.225-0.08,0.449-0.15,0.676-0.219C131.469,142.119,131.516,142.158,131.706,142.223"/>
	<path fill="#3E92CF" d="M17.711,106.764c0.227,0.164,0.322,0.199,0.371,0.271c2.6,4.107,6.1,7.348,9.996,10.168
		c3.656,2.645,6.98,5.656,10.199,8.801c0.545,0.531,1.129,1.027,1.705,1.527c0.047,0.043,0.164,0.008,0.271,0.008
		c-0.875-1.184-1.779-2.336-2.611-3.539c-2.004-2.885-3.18-6.029-3.305-9.602c-0.107-3.004-0.531-5.992-0.764-8.992
		c-0.084-1.092-0.012-2.195-0.012-3.551c0.271,0.447,0.436,0.688,0.568,0.947c1.791,3.424,3.555,6.865,5.371,10.275
		c1.809,3.396,2.549,7.064,2.932,10.846c0.236,2.322,0.48,4.654,1.688,6.895c-2.355-0.615-4.6-1.188-6.836-1.791
		c-1.424-0.385-2.836-0.824-4.256-1.236c-2.883-0.84-5.227-2.557-7.287-4.656c-4.049-4.119-6.732-8.996-7.863-14.691
		c-0.064-0.328-0.125-0.656-0.164-0.988C17.69,107.271,17.711,107.082,17.711,106.764"/>
	<path fill="#3E92CF" d="M136.024,102c0.182,3-0.059,5.9-0.379,8.801c-0.141,1.285-0.4,2.568-0.385,3.848
		c0.045,3.037-0.975,5.725-2.527,8.236c-0.996,1.611-2.145,3.133-3.148,4.793c0.816-0.756,1.656-1.484,2.439-2.273
		c3.281-3.295,6.904-6.18,10.609-8.982c3.639-2.762,6.891-5.916,9.359-9.836c-0.305,2.992-1.115,5.832-2.412,8.516
		c-2.072,4.287-4.928,7.943-8.848,10.715c-1.908,1.348-4.072,2.098-6.279,2.713c-2.846,0.787-5.713,1.488-8.709,2.26
		c0.08-0.283,0.152-0.523,0.209-0.764c0.408-1.812,1.02-3.604,1.18-5.436c0.412-4.689,1.596-9.094,3.891-13.217
		c1.645-2.963,3.141-6.008,4.709-9.012C135.793,102.246,135.897,102.156,136.024,102"/>
	<path fill="#3E92CF" d="M60.667,138.074c-2.285,0.467-4.561,1-6.861,1.379c-1.832,0.305-3.691,0.553-5.539,0.596
		c-5.684,0.133-10.652-1.887-15.072-5.348c-2.58-2.02-4.652-4.484-6.123-7.52c0.295,0.18,0.596,0.355,0.887,0.543
		c3.721,2.342,7.824,3.764,12.049,4.812c4.812,1.191,9.645,2.297,14.336,3.936c0.215,0.076,0.451,0.105,0.791-0.062
		c-0.447-0.229-0.898-0.453-1.344-0.689c-2.432-1.283-4.744-2.748-6.227-5.135c-0.805-1.289-1.396-2.709-2.037-4.092
		c-1.584-3.434-2.477-7.08-3.16-10.885c0.449,0.451,0.92,0.885,1.352,1.355c2.449,2.684,4.877,5.389,7.336,8.061
		c1.537,1.672,2.689,3.584,3.736,5.576c0.557,1.057,1.117,2.111,1.721,3.141C57.514,135.457,58.778,136.934,60.667,138.074"/>
	<path fill="#3E92CF" d="M114.084,136.898c2.084-0.664,4.146-1.393,6.252-1.973c2.943-0.809,5.92-1.492,8.879-2.248
		c5.824-1.484,8.281-2.492,13.508-5.553c-0.188,0.434-0.271,0.729-0.432,0.98c-4.188,6.652-10.148,10.668-17.924,11.877
		c-2.516,0.387-5.064,0.176-7.568-0.285c-2.396-0.436-4.779-0.939-7.164-1.424c-0.172-0.035-0.328-0.164-0.623-0.32
		c2.447-1.314,3.803-3.436,4.955-5.703c1.744-3.436,3.865-6.584,6.58-9.34c1.809-1.84,3.484-3.816,5.213-5.736
		c0.475-0.527,0.936-1.072,1.404-1.607c0.107,0.066,0.211,0.139,0.314,0.207c-0.096,0.436-0.184,0.877-0.291,1.309
		c-0.896,3.568-2.045,7.043-3.449,10.451c-1.562,3.793-4.219,6.424-7.822,8.209c-0.641,0.316-1.281,0.641-1.92,0.959
		C114.028,136.766,114.055,136.834,114.084,136.898"/>
	<path fill="#3E92CF" d="M29.579,85.055c1.053,2.328,1.621,4.545,1.908,6.82c0.252,1.984,0.453,3.992,0.484,5.988
		c0.027,1.908-0.191,3.816-0.309,5.719c-0.168,2.717-0.375,5.434-0.504,8.152c-0.076,1.58,0.229,3.117,0.781,4.676
		c-0.816-0.68-1.648-1.344-2.449-2.043c-2.268-1.98-4.516-3.988-6.791-5.961c-3.721-3.227-6.08-7.303-7.604-11.936
		c-0.988-3.008-1.66-6.061-1.697-9.547c0.664,1.471,1.145,2.688,1.74,3.848c1.633,3.172,3.92,5.871,6.213,8.568
		c1.359,1.6,2.703,3.227,3.891,4.951c0.861,1.248,1.461,2.676,2.164,4.031c0.352,0.674,0.672,1.361,1.121,2.029
		C26.059,101.859,27.127,93.543,29.579,85.055"/>
	<path fill="#3E92CF" d="M137.684,116.457c0.266-1.256,0.678-2.443,0.725-3.645c0.084-2.139,0.076-4.299-0.127-6.428
		c-0.32-3.336-0.602-6.664-0.541-10.016c0.061-3.371,0.621-6.648,1.748-9.828c0.137-0.383,0.305-0.76,0.572-1.424
		c0.188,0.676,0.301,1.076,0.412,1.473c1.4,4.951,2.135,9.98,1.963,15.141c-0.092,2.791-0.443,5.516-1.379,8.154
		c-0.129,0.357-0.229,0.721-0.336,1.084c-0.008,0.033,0.043,0.084,0.119,0.221c0.361-0.713,0.721-1.359,1.016-2.031
		c1.686-3.85,3.988-7.266,6.865-10.338c2.455-2.623,4.627-5.479,6.152-8.768c0.416-0.9,0.783-1.814,1.248-2.703
		c0.135,2.467-0.324,4.848-0.953,7.199c-0.82,3.064-2.072,5.961-3.715,8.656c-0.816,1.336-1.861,2.553-2.941,3.688
		C145.188,110.393,141.374,113.334,137.684,116.457"/>
	<path fill="#3E92CF" d="M134.239,57.773c2.895,2.711,5.787,5.428,8.691,8.131c2.1,1.953,3.316,4.4,4.068,7.121
		c0.172,0.631,0.391,1.248,0.592,1.871c0.088-0.02,0.18-0.045,0.268-0.068c-0.217-1.059-0.363-2.135-0.66-3.172
		c-0.932-3.279-0.916-6.588-0.564-9.943c0.328-3.084,0.705-6.188,0.088-9.285c-0.188-0.932-0.451-1.852-0.68-2.775
		c-0.062-0.26-0.111-0.523-0.232-1.08c1.637,1.789,2.74,3.561,3.561,5.5c2.445,5.789,3.18,11.768,1.793,17.936
		c-0.893,3.953-1.885,7.877-2.885,12.041c-0.531-3.697-2.432-6.504-4.561-9.133C139.549,69.777,136.827,63.848,134.239,57.773"/>
	<path fill="#3E92CF" d="M21.258,83.717c-1.055-4.568-2.33-8.988-3.066-13.496c-1.221-7.465,0.299-14.436,4.727-20.676
		c0.189-0.27,0.426-0.504,0.801-0.686c-0.072,0.285-0.133,0.572-0.207,0.857c-0.838,2.979-1.037,6.004-0.762,9.084
		c0.236,2.656,0.504,5.332,0.434,7.988c-0.049,1.932-0.629,3.852-0.965,5.775c-0.104,0.596-0.176,1.199-0.02,1.848
		c0.229-0.713,0.471-1.416,0.68-2.131c0.703-2.441,1.904-4.553,3.787-6.301c2.74-2.537,5.404-5.152,8.102-7.729
		c0.188-0.18,0.402-0.336,0.799-0.381c-0.908,1.926-1.799,3.861-2.736,5.773c-0.646,1.328-1.383,2.615-2.031,3.943
		c-1.271,2.6-3.096,4.816-4.783,7.137c-1.262,1.736-2.42,3.557-3.465,5.428C21.963,81.203,21.708,82.443,21.258,83.717"/>
	<path fill="#3E92CF" d="M13.756,66.385c0.115,0.645,0.16,1.312,0.359,1.932c0.621,1.9,1.053,3.916,1.996,5.648
		c2.785,5.104,4.332,10.576,5.365,16.24c0.1,0.561,0.271,1.111,0.424,1.66c0.047,0.18,0.145,0.344,0.324,0.549
		c-0.354-7.918,3.463-14.244,7.836-20.721c0.012,0.939,0.031,1.604,0.027,2.268c-0.008,0.721,0.023,1.443-0.064,2.152
		c-0.523,4.137-1.375,8.184-3.316,11.936c-0.654,1.268-1.184,2.611-1.691,3.953c-0.848,2.248-1.375,4.562-0.992,7.223
		c-0.252-0.314-0.379-0.455-0.484-0.611c-0.107-0.16-0.176-0.34-0.283-0.5c-1.52-2.316-2.996-4.664-4.584-6.936
		c-2.871-4.1-4.787-8.572-5.451-13.553C12.721,73.861,12.612,70.105,13.756,66.385"/>
	<path fill="#3E92CF" d="M156.034,66.152c0.85,3.188,0.916,6.229,0.637,9.268c-0.168,1.801-0.52,3.588-0.889,5.365
		c-0.639,3.119-1.936,5.986-3.668,8.646c-2.031,3.113-4.111,6.193-6.252,9.4c-0.051-0.828-0.076-1.564-0.146-2.297
		c-0.293-2.848-1.301-5.479-2.568-8c-2.529-5.012-3.648-10.318-3.621-15.898c0-0.236,0.025-0.473,0.037-0.725
		c0.119,0.057,0.236,0.068,0.275,0.133c2.027,3.068,4.02,6.15,5.469,9.555c1.463,3.436,2.119,7.021,2.279,10.801
		c0.191-0.713,0.4-1.42,0.576-2.141c0.748-3.051,1.352-6.146,2.279-9.146c0.633-2.037,1.693-3.938,2.592-5.885
		c1.225-2.648,2.393-5.309,2.686-8.26C155.739,66.752,155.879,66.549,156.034,66.152"/>
	<path fill="#3E92CF" d="M25.168,65.621c-0.16-2.428-0.357-4.891-0.484-7.359c-0.42-7.908,2.543-14.332,8.576-19.387
		c0.072-0.061,0.16-0.102,0.248-0.141c0.035-0.016,0.084,0,0.268,0c-0.369,0.707-0.729,1.348-1.045,2.012
		c-1.195,2.516-1.902,5.172-2.408,7.912c-0.387,2.1-1.027,4.156-1.574,6.229c-0.217,0.814-0.484,1.615-0.525,2.516
		c0.641-0.805,1.273-1.613,1.916-2.416c1.42-1.764,3.064-3.293,4.977-4.504c2.752-1.744,5.469-3.529,7.889-5.857
		c-0.361,0.789-0.668,1.605-1.084,2.365c-2.385,4.379-5.525,8.148-9.42,11.256C29.731,60.453,26.997,62.682,25.168,65.621"/>
	<path fill="#3E92CF" d="M144.547,65.865c-1.969-3.389-4.945-5.572-7.793-7.889c-3.988-3.24-7.096-7.199-9.439-11.764
		c-0.229-0.443-0.393-0.924-0.428-1.504c0.172,0.131,0.359,0.248,0.508,0.4c1.676,1.727,3.551,3.203,5.611,4.432
		c3.209,1.916,5.912,4.359,8.02,7.451c0.105,0.156,0.236,0.289,0.58,0.705c-0.135-0.672-0.168-1.029-0.283-1.357
		c-1.133-3.199-1.84-6.5-2.436-9.836c-0.412-2.303-1.277-4.488-2.416-6.551c-0.152-0.277-0.27-0.572-0.553-1.184
		c0.539,0.311,0.824,0.424,1.049,0.607c3.6,2.947,5.734,6.828,7.164,11.176c0.963,2.924,1.008,5.896,0.73,8.92
		C144.674,61.512,144.655,63.568,144.547,65.865"/>
	<path fill="#3E92CF" d="M123.178,35.152c1.084,0.568,2.184,1.107,3.248,1.715c1.115,0.641,2.188,1.361,3.297,2.012
		c4.895,2.885,7.156,7.59,9,12.961c-2.305-1.74-4.396-3.264-6.424-4.871c-1.969-1.557-3.357-3.641-4.832-5.633
		c-1.48-1.996-2.945-3.996-4.412-5.996C123.094,35.275,123.139,35.217,123.178,35.152"/>
	<path fill="#3E92CF" d="M46.581,35.322c-2.227,2.98-4.395,6.008-6.711,8.92c-1.033,1.297-2.293,2.436-3.576,3.496
		c-1.652,1.371-3.428,2.592-5.4,4.061c0.557-1.443,0.973-2.689,1.508-3.877c1.412-3.123,3.076-6.096,6.037-8.035
		c2.234-1.465,4.562-2.785,6.855-4.16c0.359-0.217,0.764-0.367,1.145-0.549L46.581,35.322z"/>
	<path fill="#3E92CF" d="M116.161,73.393c-1.268-0.783-0.16-2.523-1.432-3.176c0.188-0.516,0.328-0.9,0.504-1.383
		c0.572,0.398,0.648,0.975,0.756,1.551C116.454,72.777,116.461,72.777,116.161,73.393"/>
	<path fill="#3E92CF" d="M80.733,82.783c0.26-0.301,0.516-0.6,0.768-0.893c-0.188-0.256-0.355-0.484-0.523-0.711
		c0.668,0.398,1.564,0.547,1.779,1.578c-0.684,0.109-1.26,0.197-1.84,0.289C80.858,82.959,80.793,82.871,80.733,82.783"/>
	<path fill="#3E92CF" d="M61.963,88.355c0.57,0.713,1.383,1.365,0.566,2.541c-0.771-0.611-1.035-1.416-1.072-2.324
		c0-0.053,0.354-0.119,0.545-0.18L61.963,88.355z"/>
	<path fill="#3E92CF" d="M107.924,67.359c-0.377,0.799-0.084,1.791-0.74,2.547c-0.557,0.057-1.111,0.113-1.688,0.172
		c-0.764-1.031,0.492-0.959,0.723-1.402c0.045-0.281,0.08-0.549,0.148-1.006c0.248,0.285,0.389,0.445,0.484,0.557
		c0.363-0.275,0.732-0.557,1.104-0.84L107.924,67.359z"/>
	<path fill="#3E92CF" d="M107.958,67.387c-0.396-0.445-0.795-0.889-1.264-1.412c0.332-0.209,0.576-0.436,0.863-0.529
		c0.496-0.154,0.828,0.078,0.908,0.598c0.061,0.402,0.084,0.816,0.133,1.316h-0.672L107.958,67.387z"/>
</g>
</svg>
